<svg width="1742" height="49" viewBox="0 0 1742 49" fill="none" xmlns="http://www.w3.org/2000/svg">

<g id="_tmp logos">
<g id="Frame 2147225720">
<g id="Third Party Brand Logos">
<g id="_Mark">
<g id="Logo.svg" clip-path="url(#clip0_0_1)">
<g id="layer1">
<path id="Shape" d="M7.47391 28.9293C6.58787 28.9293 5.8079 28.7356 5.134 28.3483C4.4601 27.9486 3.93596 27.3989 3.56158 26.6992C3.18719 25.9872 3 25.1689 3 24.2443C3 23.1324 3.27455 22.1579 3.82365 21.321C4.38523 20.4839 5.17767 19.8405 6.201 19.3907C7.2368 18.941 8.44732 18.7162 9.83255 18.7162C10.469 18.7162 10.9869 18.7598 11.3863 18.8473V18.4538C11.3863 17.5043 11.2115 16.7984 10.8621 16.3362C10.5127 15.8614 9.9823 15.6241 9.27096 15.6241C8.12285 15.6241 7.38655 16.23 7.06209 17.4418C6.96225 17.7916 6.75634 17.9416 6.44435 17.8916L3.89853 17.4418C3.71133 17.4043 3.5803 17.3231 3.50542 17.1982C3.44302 17.0733 3.43678 16.9046 3.48671 16.6922C3.81118 15.4179 4.49756 14.431 5.54583 13.7314C6.6066 13.0193 7.93567 12.6632 9.53305 12.6632C11.4299 12.6632 12.8713 13.1754 13.8572 14.1999C14.8556 15.2243 15.3547 16.7172 15.3547 18.6787V28.1048C15.3547 28.2422 15.3049 28.3608 15.2051 28.4607C15.1177 28.5482 15.0053 28.5919 14.868 28.5919H12.4345C12.135 28.5919 11.9478 28.4295 11.873 28.1048L11.4986 26.3432H11.3488C11.0119 27.1677 10.5065 27.8048 9.83256 28.2546C9.17114 28.7044 8.38493 28.9293 7.47391 28.9293ZM7.0808 23.7945C7.0808 24.4567 7.24928 24.9877 7.58623 25.3874C7.93566 25.7747 8.40364 25.9684 8.99018 25.9684C9.76391 25.9684 10.3567 25.6248 10.7685 24.9376C11.1803 24.2381 11.3863 23.2386 11.3863 21.9394V20.9461C11.0368 20.8837 10.7061 20.8524 10.3941 20.8524C9.3708 20.8524 8.55963 21.121 7.96061 21.6583C7.37408 22.183 7.0808 22.8951 7.0808 23.7945ZM17.6759 13.4877C17.6759 13.3503 17.7197 13.2379 17.8069 13.1504C17.9068 13.0505 18.0254 13.0005 18.1626 13.0005H20.6336C20.7708 13.0005 20.8832 13.0442 20.9705 13.1317C21.0704 13.2192 21.1327 13.3378 21.1577 13.4877L21.5322 15.3242H21.6818C22.0189 14.4622 22.4992 13.8063 23.1233 13.3566C23.7597 12.8943 24.5085 12.6632 25.3695 12.6632C26.2931 12.6632 27.0855 12.9068 27.7469 13.3941C28.4208 13.8813 28.9387 14.5747 29.3006 15.4742H29.4504C29.9995 14.5247 30.6173 13.8188 31.3036 13.3566C31.99 12.8943 32.7574 12.6632 33.606 12.6632C34.5296 12.6632 35.3282 12.9131 36.0022 13.4128C36.6885 13.9125 37.2127 14.6246 37.5746 15.5491C37.9365 16.4736 38.1175 17.5668 38.1175 18.8285V28.1048C38.1175 28.2422 38.0675 28.3608 37.9677 28.4607C37.8803 28.5482 37.768 28.5919 37.6308 28.5919H34.6357C34.4984 28.5919 34.3798 28.5482 34.28 28.4607C34.1926 28.3608 34.1489 28.2422 34.1489 28.1048V19.1284C34.1489 18.2164 33.9743 17.5168 33.6248 17.0295C33.2754 16.5423 32.77 16.2987 32.1085 16.2987C31.3847 16.2987 30.8294 16.586 30.4425 17.1607C30.0682 17.7354 29.8809 18.5662 29.8809 19.6531V28.1048C29.8809 28.2422 29.831 28.3608 29.7311 28.4607C29.6439 28.5482 29.5315 28.5919 29.3942 28.5919H26.3991C26.2619 28.5919 26.1433 28.5482 26.0435 28.4607C25.9561 28.3608 25.9124 28.2422 25.9124 28.1048V19.1284C25.9124 18.2164 25.7377 17.5168 25.3883 17.0295C25.0388 16.5423 24.5335 16.2987 23.8721 16.2987C23.1482 16.2987 22.5928 16.586 22.206 17.1607C21.8316 17.7354 21.6444 18.5662 21.6444 19.6531V28.1048C21.6444 28.2422 21.5946 28.3608 21.4947 28.4607C21.4073 28.5482 21.295 28.5919 21.1577 28.5919H18.1626C18.0254 28.5919 17.9068 28.5482 17.8069 28.4607C17.7197 28.3608 17.6759 28.2422 17.6759 28.1048V13.4877ZM40.0642 24.2443C40.0642 23.1324 40.3388 22.1579 40.8879 21.321C41.4495 20.4839 42.2419 19.8405 43.2653 19.3907C44.301 18.941 45.5116 18.7162 46.8968 18.7162C47.5333 18.7162 48.0512 18.7598 48.4505 18.8473V18.4538C48.4505 17.5043 48.2757 16.7984 47.9264 16.3362C47.5769 15.8614 47.0466 15.6241 46.3352 15.6241C45.1871 15.6241 44.4508 16.23 44.1263 17.4418C44.0265 17.7916 43.8206 17.9416 43.5086 17.8916L40.9628 17.4418C40.7755 17.4043 40.6445 17.3231 40.5697 17.1982C40.5073 17.0733 40.501 16.9046 40.5509 16.6922C40.8754 15.4179 41.5617 14.431 42.6101 13.7314C43.6708 13.0193 44.9999 12.6632 46.5973 12.6632C48.4942 12.6632 49.9355 13.1754 50.9215 14.1999C51.9198 15.2243 52.419 16.7172 52.419 18.6787V28.1048C52.419 28.2422 52.3691 28.3608 52.2692 28.4607C52.1818 28.5482 52.0696 28.5919 51.9323 28.5919H49.4988C49.1993 28.5919 49.0121 28.4295 48.9372 28.1048L48.5628 26.3432H48.4131C48.0761 27.1677 47.5707 27.8048 46.8968 28.2546C46.2354 28.7044 45.4492 28.9293 44.5382 28.9293C43.6272 28.9293 42.8722 28.7356 42.1982 28.3483C41.5243 27.9486 41.0002 27.3989 40.6259 26.6992C40.2514 25.9872 40.0642 25.1689 40.0642 24.2443ZM44.1451 23.7945C44.1451 24.4567 44.3135 24.9877 44.6505 25.3874C44.9999 25.7747 45.4678 25.9684 46.0544 25.9684C46.8281 25.9684 47.4209 25.6248 47.8328 24.9376C48.2445 24.2381 48.4505 23.2386 48.4505 21.9394V20.9461C48.1011 20.8837 47.7704 20.8524 47.4583 20.8524C46.4351 20.8524 45.6239 21.121 45.0249 21.6583C44.4384 22.183 44.1451 22.8951 44.1451 23.7945ZM54.4407 25.8372C54.4407 25.5624 54.5156 25.3249 54.6654 25.1251L61.0673 16.1488H55.0771C54.9399 16.1488 54.8213 16.1051 54.7214 16.0176C54.6342 15.9177 54.5904 15.799 54.5904 15.6616V13.4877C54.5904 13.3503 54.6342 13.2379 54.7214 13.1504C54.8213 13.0505 54.9399 13.0005 55.0771 13.0005H64.9234C65.0608 13.0005 65.1731 13.0505 65.2605 13.1504C65.3603 13.2379 65.4102 13.3503 65.4102 13.4877V15.7552C65.4102 16.0301 65.3353 16.2675 65.1855 16.4674L59.3825 24.4504C59.732 24.388 60.0877 24.3568 60.4496 24.3568C61.3481 24.3568 62.1718 24.438 62.9205 24.6004C63.6818 24.7503 64.4679 25.0001 65.2791 25.35C65.5662 25.4749 65.7096 25.6872 65.7096 25.9872V28.1422C65.7096 28.3421 65.6474 28.4795 65.5225 28.5544C65.3977 28.6169 65.2417 28.6107 65.0545 28.5357C64.1186 28.1859 63.2886 27.9423 62.5649 27.8048C61.8535 27.655 61.0735 27.5799 60.2249 27.5799C59.3763 27.5799 58.5651 27.655 57.754 27.8048C56.9553 27.9548 56.0693 28.1983 55.0959 28.5357C54.9087 28.5982 54.7526 28.5982 54.6278 28.5357C54.5031 28.4607 54.4407 28.3295 54.4407 28.1422V25.8372ZM66.5334 20.7962C66.5334 19.2721 66.8266 17.8916 67.4132 16.6548C67.9997 15.4054 68.8046 14.431 69.828 13.7314C70.8638 13.0193 72.0119 12.6632 73.2722 12.6632C74.5327 12.6632 75.6934 13.0193 76.7166 13.7314C77.7524 14.431 78.5636 15.4054 79.1502 16.6548C79.7491 17.8916 80.0488 19.2721 80.0488 20.7962C80.0488 22.3204 79.7491 23.7072 79.1502 24.9564C78.5636 26.1933 77.7524 27.1677 76.7166 27.8799C75.6934 28.5794 74.5453 28.9293 73.2722 28.9293C71.9993 28.9293 70.8638 28.5794 69.828 27.8799C68.8046 27.1677 67.9997 26.1933 67.4132 24.9564C66.8266 23.7072 66.5334 22.3204 66.5334 20.7962ZM70.6516 20.7962C70.6516 22.3828 70.8762 23.6072 71.3255 24.4692C71.7748 25.3187 72.4236 25.7435 73.2722 25.7435C74.121 25.7435 74.7761 25.3187 75.2378 24.4692C75.6996 23.6072 75.9304 22.3828 75.9304 20.7962C75.9304 19.2096 75.6996 17.9915 75.2378 17.142C74.7761 16.28 74.121 15.8489 73.2722 15.8489C72.4236 15.8489 71.7748 16.28 71.3255 17.142C70.8762 17.9915 70.6516 19.2096 70.6516 20.7962ZM82.0703 13.4877C82.0703 13.3503 82.1141 13.2379 82.2015 13.1504C82.3013 13.0505 82.4198 13.0005 82.557 13.0005H85.028C85.1652 13.0005 85.2776 13.0442 85.365 13.1317C85.4648 13.2192 85.5273 13.3378 85.5521 13.4877L85.9266 15.3242H86.0763C86.4133 14.4747 86.9062 13.8188 87.5551 13.3566C88.2165 12.8943 88.9903 12.6632 89.8763 12.6632C90.8248 12.6632 91.6422 12.9131 92.3285 13.4128C93.0274 13.9125 93.564 14.6246 93.9385 15.5491C94.3128 16.4736 94.5 17.5668 94.5 18.8285V28.1048C94.5 28.2422 94.45 28.3608 94.3502 28.4607C94.2629 28.5482 94.1505 28.5919 94.0133 28.5919H91.0182C90.8809 28.5919 90.7623 28.5482 90.6625 28.4607C90.5752 28.3608 90.5315 28.2422 90.5315 28.1048V19.1284C90.5315 18.2164 90.3443 17.5168 89.9699 17.0295C89.5955 16.5423 89.0651 16.2987 88.3788 16.2987C87.6176 16.2987 87.0372 16.586 86.6379 17.1607C86.2385 17.7354 86.0388 18.5662 86.0388 19.6531V28.1048C86.0388 28.2422 85.989 28.3608 85.8892 28.4607C85.8018 28.5482 85.6895 28.5919 85.5521 28.5919H82.557C82.4198 28.5919 82.3013 28.5482 82.2015 28.4607C82.1141 28.3608 82.0703 28.2422 82.0703 28.1048V13.4877Z" fill="white"/>
<path id="Path" d="M13.4084 30.7465C13.1713 30.9339 13.1213 31.2461 13.2586 31.6835C13.3834 32.0708 13.6767 32.5517 14.1384 33.1264C15.9978 35.4252 18.213 37.3366 20.7837 38.8608C23.3545 40.385 26.1063 41.5093 29.039 42.2339C31.9842 42.971 34.9917 43.3395 38.0616 43.3395C41.9927 43.3395 45.7366 42.7649 49.2933 41.6154C52.8499 40.4786 55.82 38.8794 58.2037 36.8181C59.0398 36.0811 59.4579 35.4939 59.4579 35.0566C59.4579 34.8942 59.3892 34.7317 59.252 34.5693C59.0648 34.382 58.8401 34.3195 58.5781 34.382C58.316 34.4444 57.9479 34.6006 57.4736 34.8505C55.1899 36.0498 52.407 37.0055 49.1248 37.7177C45.8552 38.4422 42.442 38.8045 38.8854 38.8045C34.4801 38.8045 30.2246 38.2049 26.1188 37.0055C22.013 35.8062 18.3752 33.9322 15.2054 31.3837C14.7437 31.0214 14.3692 30.7901 14.0823 30.6902C13.8077 30.5903 13.5831 30.6091 13.4084 30.7465Z" fill="#FF6201"/>
<path id="path6" d="M55.0019 31.6845C54.7398 31.9344 54.6712 32.1968 54.796 32.4717C54.8834 32.6716 55.0518 32.784 55.3015 32.809C55.551 32.8464 55.9067 32.8214 56.3684 32.7341C57.1172 32.5716 57.8971 32.4591 58.7083 32.3967C59.5195 32.3468 60.2246 32.3592 60.8236 32.4341C61.4227 32.5216 61.797 32.6716 61.9468 32.8839C62.1715 33.2213 62.0903 33.9333 61.7034 35.0203C61.3291 36.1071 60.8174 37.1628 60.1685 38.1873C59.9188 38.5995 59.7691 38.9243 59.7192 39.1618C59.6693 39.3991 59.7317 39.599 59.9064 39.7614C60.0187 39.8738 60.1435 39.93 60.2807 39.93C60.6427 39.93 61.1669 39.6114 61.8532 38.9743C63.0887 37.8999 63.956 36.6256 64.4552 35.1515C64.7297 34.3893 64.8982 33.5898 64.9606 32.7527C65.023 31.9158 64.9294 31.316 64.6798 30.9537C64.4427 30.6039 63.9185 30.3165 63.1074 30.0918C62.3087 29.8669 61.5038 29.7544 60.6926 29.7544C59.1076 29.7544 57.6039 30.1292 56.1813 30.8788C55.6572 31.1662 55.2641 31.4347 55.0019 31.6845Z" fill="#FF6201"/>
</g>
</g>
</g>
</g>
</g>
<g id="Frame 2147225726">
<g id="Third Party Brand Logos_2">
<g id="Frame 13">
<g id="Group 3">
<g id="Wordmark">
<path id="Vector" d="M177.836 12.8203H181.708L188.291 24.7891L194.874 12.8203H198.661V32.4872H195.503V17.414L189.73 27.8515H186.767L180.995 17.414V32.4872H177.836V12.8203Z" fill="white"/>
<path id="Vector_2" d="M208.85 32.8385C207.387 32.8385 206.101 32.513 204.992 31.8621C203.883 31.2112 203.019 30.3099 202.4 29.1579C201.78 28.006 201.47 26.6855 201.47 25.1965C201.47 23.6888 201.773 22.3542 202.379 21.1929C202.984 20.0317 203.825 19.1233 204.901 18.4675C205.978 17.8121 207.215 17.4844 208.612 17.4842C210 17.4842 211.195 17.8143 212.197 18.4745C213.199 19.1349 213.97 20.0597 214.51 21.249C215.05 22.4385 215.321 23.8339 215.321 25.4353V26.3061H204.601C204.797 27.5051 205.279 28.4486 206.048 29.1368C206.816 29.8251 207.788 30.1693 208.962 30.1692C209.903 30.1692 210.713 30.0288 211.393 29.7478C212.073 29.4669 212.712 29.0408 213.308 28.4696L214.985 30.5345C213.317 32.0706 211.272 32.8386 208.85 32.8385ZM211.156 21.1717C210.494 20.4928 209.628 20.1533 208.556 20.1532C207.513 20.1532 206.639 20.4997 205.936 21.1928C205.232 21.8859 204.787 22.8177 204.601 23.9884H212.288C212.195 22.7896 211.817 21.8507 211.156 21.1717Z" fill="white"/>
<path id="Vector_3" d="M219.151 20.4343H216.243V17.8355H219.151V13.5369H222.197V17.8355H226.614V20.4343H222.197V27.0227C222.197 28.1183 222.384 28.9003 222.756 29.3686C223.129 29.837 223.767 30.0711 224.671 30.071C225.072 30.071 225.412 30.0546 225.691 30.0218C225.971 29.9891 226.278 29.9447 226.614 29.8883V32.459C226.231 32.5703 225.841 32.6548 225.447 32.712C224.996 32.7787 224.54 32.8116 224.084 32.8103C220.795 32.8103 219.15 31.0029 219.151 27.3879V20.4343Z" fill="white"/>
<path id="Vector_4" d="M242.491 32.4872H239.5V30.4362C238.969 31.2043 238.294 31.7966 237.474 32.2132C236.654 32.6298 235.722 32.8382 234.678 32.8385C233.393 32.8385 232.254 32.5083 231.261 31.848C230.269 31.1878 229.489 30.2794 228.92 29.1228C228.352 27.9662 228.068 26.6434 228.068 25.1543C228.068 23.6559 228.356 22.3307 228.934 21.1787C229.512 20.0269 230.311 19.1232 231.331 18.4675C232.351 17.8121 233.523 17.4844 234.846 17.4842C235.843 17.4842 236.738 17.6786 237.53 18.0673C238.311 18.4471 238.988 19.0139 239.5 19.7178V17.8355H242.491V32.4872ZM239.444 22.9629C239.118 22.1294 238.603 21.4714 237.9 20.9891C237.196 20.5068 236.383 20.2657 235.461 20.2657C234.157 20.2657 233.118 20.7058 232.344 21.5861C231.571 22.4665 231.184 23.6559 231.184 25.1543C231.184 26.6622 231.557 27.8563 232.302 28.7365C233.048 29.6169 234.059 30.057 235.335 30.057C236.276 30.057 237.115 29.8134 237.851 29.3264C238.587 28.8397 239.118 28.1841 239.444 27.3598V22.9629Z" fill="white"/>
</g>
<g id="Symbol">
<path id="Vector_5" d="M162.575 12.1555C160.035 12.1555 158.049 14.0784 156.252 16.5209C153.782 13.36 151.716 12.1555 149.245 12.1555C144.205 12.1555 140.344 18.7477 140.344 25.7251C140.344 30.0913 142.445 32.8452 145.965 32.8452C148.499 32.8452 150.321 31.6447 153.56 25.9534C153.56 25.9534 154.91 23.5567 155.839 21.9057C156.165 22.434 156.508 23.0032 156.868 23.6133L158.387 26.1817C161.346 31.1585 162.994 32.8452 165.982 32.8452C169.411 32.8452 171.32 30.0537 171.32 25.5967C171.32 18.2911 167.371 12.1555 162.575 12.1555ZM151.09 24.4124C148.464 28.5503 147.555 29.4778 146.093 29.4778C144.588 29.4778 143.694 28.1499 143.694 25.7822C143.694 20.7168 146.207 15.5372 149.202 15.5372C150.824 15.5372 152.18 16.4788 154.256 19.4665C152.284 22.506 151.09 24.4124 151.09 24.4124ZM161.002 23.8915L159.186 20.847C158.694 20.0436 158.222 19.3041 157.769 18.6285C159.406 16.0891 160.756 14.8238 162.362 14.8238C165.698 14.8238 168.367 19.7608 168.367 25.825C168.367 28.1365 167.614 29.4778 166.053 29.4778C164.557 29.4778 163.842 28.4848 161.002 23.8915Z" fill="#0081FB"/>
</g>
</g>
</g>
</g>
</g>
<g id="Frame 2147225718">
<g id="Third Party Brand Logos_3">
<g id="_Mark_2">
<g id="Logo.svg_2" clip-path="url(#clip1_0_1)">
<g id="Group">
<path id="Vector_6" d="M298.946 20.9449V24.0091H306.336C306.14 25.7042 305.551 27.0081 304.636 27.8557C303.589 28.8988 301.889 30.0724 298.946 30.0724C294.433 30.0724 290.901 26.4214 290.901 21.9228C290.901 17.4242 294.367 13.7732 298.946 13.7732C301.366 13.7732 303.197 14.7512 304.505 15.9899L306.663 13.8384C304.832 12.0781 302.347 10.709 298.946 10.709C292.732 10.709 287.5 15.7291 287.5 21.9228C287.5 28.1165 292.732 33.1366 298.946 33.1366C302.281 33.1366 304.832 32.0283 306.794 30.0072C308.822 27.9861 309.476 25.1174 309.476 22.8356C309.476 22.1184 309.41 21.4664 309.345 20.9449H298.946Z" fill="#4285F4"/>
<path id="Vector_7" d="M318.632 18.4022C314.643 18.4022 311.307 21.4664 311.307 25.639C311.307 29.8116 314.577 32.8758 318.632 32.8758C322.687 32.8758 325.958 29.8768 325.958 25.7042C325.958 21.4664 322.687 18.4022 318.632 18.4022ZM318.632 30.0724C316.409 30.0724 314.512 28.2469 314.512 25.7042C314.512 23.0963 316.409 21.336 318.632 21.336C320.856 21.336 322.753 23.0963 322.753 25.7042C322.753 28.2469 320.856 30.0724 318.632 30.0724Z" fill="#EA4335"/>
<path id="Vector_8" d="M354.408 20.0321H354.277C353.558 19.1845 352.184 18.4022 350.418 18.4022C346.756 18.4022 343.616 21.5316 343.616 25.639C343.616 29.6812 346.756 32.8758 350.418 32.8758C352.184 32.8758 353.558 32.0935 354.277 31.2459H354.408V32.2891C354.408 35.0273 352.904 36.5268 350.549 36.5268C348.587 36.5268 347.41 35.1577 346.887 33.919L344.14 35.0925C344.925 36.9832 347.083 39.3955 350.615 39.3955C354.343 39.3955 357.547 37.1788 357.547 31.8327V18.7934H354.539V20.0321H354.408ZM350.745 30.0724C348.522 30.0724 346.887 28.1817 346.887 25.7042C346.887 23.1615 348.587 21.336 350.745 21.336C352.904 21.336 354.604 23.2267 354.604 25.7694C354.67 28.2469 352.969 30.0724 350.745 30.0724Z" fill="#4285F4"/>
<path id="Vector_9" d="M334.918 18.4022C330.928 18.4022 327.593 21.4664 327.593 25.639C327.593 29.8116 330.863 32.8758 334.918 32.8758C338.973 32.8758 342.243 29.8768 342.243 25.7042C342.243 21.4664 338.973 18.4022 334.918 18.4022ZM334.918 30.0724C332.694 30.0724 330.797 28.2469 330.797 25.7042C330.797 23.0963 332.694 21.336 334.918 21.336C337.141 21.336 339.038 23.0963 339.038 25.7042C339.038 28.2469 337.141 30.0724 334.918 30.0724Z" fill="#FBBC05"/>
<path id="Vector_10" d="M359.968 11.035H363.107V32.941H359.968V11.035Z" fill="#34A853"/>
<path id="Vector_11" d="M372.787 30.0724C371.152 30.0724 370.04 29.3552 369.255 27.8557L379 23.8787L378.673 23.0311C378.084 21.4012 376.188 18.4022 372.46 18.4022C368.732 18.4022 365.592 21.336 365.592 25.639C365.592 29.6812 368.666 32.8758 372.787 32.8758C376.122 32.8758 378.019 30.8547 378.869 29.6812L376.384 28.0513C375.534 29.29 374.422 30.0724 372.787 30.0724ZM372.591 21.1404C373.899 21.1404 375.01 21.7924 375.337 22.7052L368.797 25.4434C368.732 22.4444 370.955 21.1404 372.591 21.1404Z" fill="#EA4335"/>
</g>
</g>
</g>
</g>
</g>
<g id="Frame 2147225722">
<g id="Third Party Brand Logos_4">
<g id="_Mark_3">
<g id="razorpay_logo.svg" clip-path="url(#clip2_0_1)">
<path id="Vector_12" d="M459.803 21.7312C460.204 20.2266 460.038 19.0754 459.307 18.2776C458.576 17.4798 457.297 17.0782 455.472 17.0728H448.478L444.262 32.9459H447.648L449.353 26.5206H451.59C451.999 26.5001 452.406 26.5839 452.774 26.7642C452.924 26.858 453.048 26.9865 453.137 27.139C453.227 27.2914 453.278 27.4632 453.287 27.6398L453.898 32.9459H457.527L456.935 28.0172C456.817 26.9169 456.313 26.269 455.438 26.0736C456.497 25.7804 457.463 25.2201 458.245 24.4458C459 23.6997 459.539 22.7612 459.803 21.7312ZM456.561 21.7874C456.415 22.4382 456.018 23.0043 455.456 23.3616C454.922 23.6989 454.143 23.8649 453.153 23.8649H450.01L451.115 19.7179H454.261C455.248 19.7179 455.926 19.8866 456.3 20.2212C456.673 20.5559 456.753 21.086 456.561 21.7874Z" fill="white"/>
<path id="Vector_13" d="M469.581 21.6L469.151 23.2063C468.972 22.6322 468.593 22.1419 468.084 21.8249C467.49 21.467 466.804 21.2903 466.112 21.3162C465.14 21.3164 464.185 21.5711 463.342 22.0551C462.424 22.5833 461.631 23.3049 461.018 24.1701C460.342 25.1055 459.847 26.1598 459.558 27.2783C459.255 28.2737 459.191 29.3268 459.371 30.3517C459.509 31.1612 459.94 31.8909 460.583 32.3998C461.281 32.9006 462.127 33.1515 462.984 33.112C463.75 33.1137 464.507 32.9492 465.204 32.6299C465.9 32.3105 466.519 31.8439 467.019 31.2619L466.576 32.9379H469.877L472.887 21.6H469.581ZM468.081 27.2221C467.877 28.1452 467.423 28.9939 466.768 29.6744C466.487 29.9512 466.153 30.1689 465.786 30.3151C465.42 30.4612 465.028 30.5329 464.634 30.5257C463.793 30.5257 463.227 30.258 462.923 29.6877C462.619 29.1176 462.611 28.3224 462.888 27.2783C463.099 26.3469 463.561 25.4913 464.223 24.8046C464.505 24.5195 464.842 24.2938 465.213 24.1407C465.583 23.9876 465.981 23.9102 466.381 23.9131C467.203 23.9131 467.764 24.1995 468.052 24.7698C468.34 25.34 468.369 26.1458 468.087 27.2194L468.081 27.2221Z" fill="white"/>
<path id="Vector_14" d="M484.663 21.608H475.156L474.454 24.2531H479.988L472.711 30.6221L472.089 32.9593H481.91L482.611 30.3143H476.674L484.071 23.8541L484.663 21.608Z" fill="white"/>
<path id="Vector_15" d="M495.063 22.023C494.18 21.5168 493.173 21.27 492.157 21.3108C491.011 21.3009 489.876 21.544 488.835 22.023C487.821 22.4971 486.931 23.1999 486.233 24.0764C485.504 24.9958 484.977 26.0597 484.688 27.198C484.376 28.2103 484.338 29.2874 484.575 30.3195C484.794 31.1764 485.337 31.914 486.089 32.3756C486.854 32.8487 487.832 33.0851 489.024 33.0851C490.158 33.0951 491.28 32.8528 492.309 32.3756C493.319 31.9014 494.206 31.1975 494.897 30.3195C495.628 29.4007 496.155 28.3367 496.445 27.198C496.757 26.1857 496.795 25.1082 496.555 24.0764C496.344 23.2224 495.809 22.4852 495.063 22.023ZM493.136 27.1926C492.84 28.3063 492.405 29.1416 491.818 29.6931C491.251 30.2346 490.495 30.53 489.712 30.515C487.987 30.515 487.418 29.4076 488.007 27.1926C488.297 26.0932 488.742 25.2642 489.342 24.7055C489.915 24.1549 490.682 23.8537 491.476 23.8676C492.298 23.8676 492.859 24.1353 493.147 24.7055C493.435 25.2758 493.427 26.0923 493.136 27.1926Z" fill="white"/>
<path id="Vector_16" d="M531.008 21.6L530.578 23.2063C530.399 22.6322 530.021 22.1419 529.511 21.8249C528.918 21.4638 528.232 21.2842 527.539 21.3082C526.566 21.3103 525.61 21.5678 524.766 22.0551C523.848 22.5832 523.054 23.3047 522.439 24.1701C521.765 25.1061 521.269 26.1602 520.98 27.2783C520.679 28.2742 520.615 29.3266 520.793 30.3517C520.93 31.1612 521.362 31.8909 522.004 32.3997C522.712 32.9048 523.568 33.1556 524.435 33.112C525.184 33.1091 525.924 32.9466 526.605 32.6353C527.308 32.3188 527.932 31.8497 528.433 31.2619L527.99 32.9379H531.291L534.304 21.6H531.008ZM529.5 27.2221C529.297 28.1449 528.844 28.9937 528.19 29.6744C527.908 29.9503 527.574 30.1675 527.207 30.3137C526.841 30.4598 526.449 30.5319 526.055 30.5257C525.212 30.5257 524.646 30.258 524.342 29.6877C524.038 29.1176 524.033 28.3224 524.307 27.2783C524.519 26.3473 524.981 25.492 525.642 24.8046C525.925 24.5196 526.262 24.2941 526.633 24.141C527.004 23.988 527.402 23.9105 527.803 23.9131C528.625 23.9131 529.182 24.1986 529.474 24.7698C529.783 25.3239 529.791 26.1458 529.5 27.2194V27.2221Z" fill="white"/>
<path id="Vector_17" d="M506.812 24.652L507.656 21.5652C507.3 21.4037 506.912 21.3276 506.521 21.343C505.759 21.3439 505.009 21.5411 504.344 21.9159C503.738 22.2492 503.211 22.7116 502.802 23.2706L503.236 21.6081H499.938L496.901 32.9459H500.248L501.82 27.0267C502.004 26.2368 502.435 25.5267 503.05 25C503.682 24.5045 504.468 24.2477 505.27 24.2745C505.807 24.2723 506.337 24.4019 506.812 24.652Z" fill="white"/>
<path id="Vector_18" d="M518.474 22.0792C517.791 21.5557 516.947 21.2894 516.088 21.3269C515.253 21.3278 514.43 21.5279 513.687 21.9105C512.942 22.2779 512.3 22.8253 511.819 23.5034L511.832 23.4258L512.395 21.608H509.113L508.275 24.7591C508.275 24.7938 508.256 24.8313 508.248 24.8661L504.806 37.8505H508.168L509.905 31.3075C510.071 31.8847 510.454 32.375 510.973 32.6755C511.575 33.0224 512.262 33.1932 512.955 33.1681C513.93 33.1708 514.89 32.9278 515.747 32.4613C516.658 31.9571 517.446 31.2535 518.05 30.4025C518.714 29.4718 519.2 28.4249 519.483 27.3158C519.788 26.3055 519.857 25.2383 519.685 24.1968C519.545 23.369 519.115 22.6184 518.474 22.0792ZM516.096 27.2623C515.891 28.1708 515.44 29.0046 514.791 29.6717C514.218 30.2222 513.45 30.5224 512.656 30.507C511.829 30.507 511.269 30.2204 510.973 29.6556C510.676 29.0907 510.66 28.2769 510.951 27.2033C511.159 26.273 511.621 25.4192 512.286 24.7376C512.568 24.4611 512.902 24.2431 513.268 24.0961C513.634 23.9491 514.026 23.876 514.42 23.8809C515.221 23.8809 515.779 24.1808 516.07 24.7724C516.36 25.3641 516.379 26.2021 516.096 27.2623Z" fill="white"/>
<path id="Vector_19" d="M548.34 21.2305H544.871L544.337 22.3496C544.295 22.4058 544.255 22.462 544.207 22.5316L544.151 22.6226L539.881 28.6141L538.995 21.608H535.494L537.274 32.3542L533.338 37.8505H536.708L537.682 36.4557C537.711 36.4128 537.741 36.378 537.767 36.3326L538.907 34.7021L538.944 34.6593L544.033 27.3746L548.34 21.2305Z" fill="white"/>
<path id="Vector_20" d="M435.69 18.8853L434.676 22.5905L440.398 18.8666L436.662 32.9459H440.454L445.975 12.1495L435.69 18.8853Z" fill="#3395FF"/>
<path id="Vector_21" d="M429.526 27.024L427.952 32.9459H435.73L438.914 20.8985L429.526 27.024Z" fill="white"/>
</g>
</g>
</g>
</g>
<g id="Frame 2147225728">
<g id="_Mark_4">
<g id="Logo.svg_3" clip-path="url(#clip3_0_1)">
<path id="Vector_22" d="M642.282 26.5911L641.528 28.7329H641.465C641.339 28.25 641.109 27.515 640.731 26.6331L636.687 16.449H632.727V32.6806H635.346V22.6645C635.346 22.0345 635.346 21.3206 635.325 20.4387C635.304 19.9977 635.262 19.6617 635.241 19.4098H635.304C635.43 20.0397 635.577 20.5017 635.681 20.7956L640.543 32.6386H642.387L647.206 20.6906C647.311 20.4177 647.416 19.8717 647.521 19.4098H647.583C647.521 20.6067 647.479 21.6776 647.458 22.3285V32.6176H650.245V16.407H646.431L642.282 26.5911ZM652.885 20.9846H655.609V32.6176H652.885V20.9846ZM654.268 16.0711C653.807 16.0711 653.43 16.2391 653.115 16.533C652.801 16.827 652.633 17.205 652.633 17.6669C652.633 18.1079 652.801 18.4858 653.115 18.7798C653.43 19.0738 653.807 19.2208 654.268 19.2208C654.729 19.2208 655.127 19.0528 655.42 18.7798C655.735 18.4858 655.902 18.1079 655.902 17.6669C655.902 17.226 655.735 16.848 655.42 16.533C655.148 16.2391 654.75 16.0711 654.268 16.0711ZM665.269 20.8796C664.766 20.7746 664.242 20.7116 663.739 20.7116C662.503 20.7116 661.371 20.9846 660.428 21.5306C659.485 22.0765 658.731 22.8325 658.249 23.7774C657.746 24.7433 657.495 25.8562 657.495 27.1371C657.495 28.25 657.746 29.2369 658.228 30.1398C658.71 31.0217 659.381 31.7356 660.282 32.2186C661.141 32.7016 662.147 32.9535 663.278 32.9535C664.577 32.9535 665.688 32.6806 666.568 32.1766L666.589 32.1556V29.6358L666.484 29.7198C666.086 30.0138 665.625 30.2658 665.164 30.4128C664.682 30.5807 664.242 30.6647 663.865 30.6647C662.775 30.6647 661.916 30.3498 661.309 29.6568C660.68 28.9849 660.366 28.061 660.366 26.9061C660.366 25.7092 660.68 24.7643 661.329 24.0713C661.979 23.3784 662.838 23.0214 663.886 23.0214C664.766 23.0214 665.667 23.3154 666.484 23.9034L666.589 23.9873V21.3206L666.568 21.2996C666.212 21.1526 665.814 20.9846 665.269 20.8796ZM674.258 20.7956C673.588 20.7956 672.959 21.0056 672.414 21.4466C671.953 21.8245 671.639 22.3705 671.367 23.0214H671.346V20.9846H668.622V32.6176H671.346V26.6751C671.346 25.6672 671.555 24.8273 672.016 24.2183C672.477 23.5884 673.064 23.2734 673.776 23.2734C674.028 23.2734 674.279 23.3364 674.594 23.3784C674.887 23.4624 675.096 23.5464 675.243 23.6514L675.348 23.7354V21.0056L675.285 20.9846C675.096 20.8586 674.719 20.7956 674.258 20.7956ZM681.676 20.7326C679.769 20.7326 678.24 21.2996 677.171 22.4125C676.081 23.5254 675.557 25.0582 675.557 26.9901C675.557 28.7959 676.102 30.2658 677.15 31.3367C678.198 32.3866 679.623 32.9325 681.404 32.9325C683.269 32.9325 684.756 32.3656 685.825 31.2317C686.915 30.0978 687.439 28.5859 687.439 26.7171C687.439 24.8693 686.936 23.3994 685.909 22.3285C684.924 21.2576 683.478 20.7326 681.676 20.7326ZM683.855 29.6778C683.352 30.3288 682.556 30.6437 681.571 30.6437C680.587 30.6437 679.79 30.3288 679.224 29.6358C678.659 28.9849 678.386 28.04 678.386 26.8431C678.386 25.6042 678.68 24.6593 679.224 23.9873C679.79 23.3154 680.566 22.9794 681.55 22.9794C682.514 22.9794 683.269 23.2944 683.813 23.9453C684.358 24.5963 684.652 25.5412 684.652 26.7801C684.61 28.04 684.379 29.0269 683.855 29.6778ZM693.515 25.8142C692.656 25.4572 692.111 25.1842 691.86 24.9533C691.65 24.7433 691.546 24.4493 691.546 24.0713C691.546 23.7564 691.671 23.4414 691.986 23.2314C692.3 23.0214 692.656 22.9164 693.18 22.9164C693.641 22.9164 694.123 23.0004 694.584 23.1264C695.045 23.2524 695.464 23.4414 695.799 23.6934L695.904 23.7774V21.2156L695.841 21.1946C695.527 21.0686 695.108 20.9426 694.605 20.8376C694.102 20.7536 693.641 20.7116 693.264 20.7116C691.965 20.7116 690.896 21.0266 690.058 21.7196C689.22 22.3705 688.822 23.2524 688.822 24.2813C688.822 24.8273 688.905 25.3102 689.094 25.7092C689.283 26.1082 689.555 26.4861 689.932 26.8011C690.309 27.0951 690.854 27.431 691.608 27.746C692.237 28.019 692.719 28.229 693.012 28.3969C693.306 28.5649 693.494 28.7539 693.641 28.9009C693.746 29.0689 693.809 29.2789 693.809 29.5518C693.809 30.3288 693.222 30.7067 692.028 30.7067C691.567 30.7067 691.085 30.6227 690.519 30.4338C689.953 30.2448 689.429 29.9718 688.989 29.6568L688.884 29.5728V32.2396L688.947 32.2606C689.345 32.4496 689.827 32.5756 690.414 32.7226C691.001 32.8275 691.525 32.9115 691.986 32.9115C693.39 32.9115 694.542 32.5966 695.359 31.9036C696.197 31.2317 696.638 30.3708 696.638 29.2579C696.638 28.4809 696.428 27.788 695.967 27.263C695.359 26.7591 694.605 26.2341 693.515 25.8142ZM703.825 20.7326C701.918 20.7326 700.388 21.2996 699.32 22.4125C698.251 23.5254 697.706 25.0582 697.706 26.9901C697.706 28.7959 698.251 30.2658 699.299 31.3367C700.346 32.3866 701.771 32.9325 703.552 32.9325C705.417 32.9325 706.905 32.3656 707.974 31.2317C709.063 30.0978 709.587 28.5859 709.587 26.7171C709.587 24.8693 709.084 23.3994 708.058 22.3285C707.073 21.2576 705.627 20.7326 703.825 20.7326ZM705.983 29.6778C705.48 30.3288 704.684 30.6437 703.699 30.6437C702.693 30.6437 701.918 30.3288 701.352 29.6358C700.786 28.9849 700.514 28.04 700.514 26.8431C700.514 25.6042 700.807 24.6593 701.352 23.9873C701.918 23.3154 702.693 22.9794 703.678 22.9794C704.621 22.9794 705.396 23.2944 705.941 23.9453C706.486 24.5963 706.779 25.5412 706.779 26.7801C706.779 28.04 706.507 29.0269 705.983 29.6778ZM724.151 23.2314V20.9846H721.406V17.5409L721.322 17.5619L718.723 18.3389L718.661 18.3599V20.9846H714.553V19.5148C714.553 18.8428 714.721 18.3179 715.014 17.9819C715.308 17.6459 715.748 17.4779 716.293 17.4779C716.67 17.4779 717.068 17.5619 717.508 17.7509L717.613 17.8139V15.4411L717.55 15.4201C717.173 15.2941 716.67 15.2101 716.02 15.2101C715.203 15.2101 714.491 15.3991 713.841 15.7141C713.191 16.0711 712.709 16.554 712.353 17.205C711.997 17.8349 711.808 18.5488 711.808 19.3678V20.9846H709.902V23.2104H711.808V32.6176H714.553V23.2314H718.661V29.2159C718.661 31.6726 719.813 32.9115 722.118 32.9115C722.495 32.9115 722.893 32.8485 723.27 32.7855C723.669 32.7016 723.962 32.5966 724.13 32.5126L724.151 32.4916V30.2448L724.046 30.3288C723.878 30.4338 723.731 30.5178 723.48 30.5807C723.27 30.6437 723.082 30.6647 722.935 30.6647C722.39 30.6647 722.013 30.5387 721.741 30.2238C721.489 29.9298 721.364 29.4468 721.364 28.7329V23.2314H724.151Z" fill="white"/>
<path id="Vector_23" d="M597.616 10.9893H610.461V23.8612H597.616V10.9893Z" fill="#F25022"/>
<path id="Vector_24" d="M611.803 10.9893H624.648V23.8612H611.803V10.9893Z" fill="#7FBA00"/>
<path id="Vector_25" d="M597.616 25.2066H610.461V38.0784H597.616V25.2066Z" fill="#00A4EF"/>
<path id="Vector_26" d="M611.803 25.2066H624.648V38.0784H611.803V25.2066Z" fill="#FFB900"/>
</g>
</g>
</g>
<g id="Frame 2147225723">
<g id="Third Party Brand Logos_5">
<g id="_Mark_5">
<g id="phonepe_logo.svg" clip-path="url(#clip4_0_1)">
<g id="Group_2">
<path id="Vector_27" d="M790.805 39.5174C799.954 39.5174 807.371 32.1173 807.371 22.9887C807.371 13.8602 799.954 6.4601 790.805 6.4601C781.655 6.4601 774.238 13.8602 774.238 22.9887C774.238 32.1173 781.655 39.5174 790.805 39.5174Z" fill="#5F259F"/>
<path id="Vector_28" d="M858.04 32.4454V26.4425C858.04 24.9623 857.484 24.2222 856.103 24.2222C855.547 24.2222 854.908 24.3045 854.537 24.4073V33.1855C854.537 33.4528 854.269 33.7406 853.981 33.7406H851.858C851.591 33.7406 851.302 33.4733 851.302 33.1855V22.9271C851.302 22.557 851.57 22.2898 851.858 22.187C853.239 21.7347 854.64 21.4469 856.124 21.4469C859.462 21.4469 861.316 23.1943 861.316 26.4425V33.2678C861.316 33.535 861.048 33.8228 860.76 33.8228H859.462C858.596 33.8228 858.04 33.1855 858.04 32.4454ZM866.365 28.8478L866.282 29.6701C866.282 30.7802 867.024 31.4175 868.219 31.4175C869.146 31.4175 869.971 31.1503 870.898 30.6774C870.98 30.6774 871.083 30.5952 871.166 30.5952C871.351 30.5952 871.434 30.6774 871.537 30.7802C871.619 30.8625 871.804 31.1503 871.804 31.1503C871.99 31.4175 872.175 31.7876 872.175 32.0754C872.175 32.5277 871.907 33.0005 871.537 33.1855C870.527 33.7406 869.311 34.0078 868.013 34.0078C866.529 34.0078 865.334 33.6378 864.407 32.8977C863.48 32.0754 862.924 30.9653 862.924 29.5673V25.9697C862.924 23.1121 864.778 21.3441 867.931 21.3441C870.98 21.3441 872.752 23.0093 872.752 25.9697V28.1899C872.752 28.4572 872.484 28.745 872.196 28.745H866.365V28.8478ZM866.282 26.8125H869.806V25.8874C869.806 24.7773 869.167 24.0372 868.054 24.0372C866.942 24.0372 866.303 24.6745 866.303 25.8874C866.282 25.8874 866.282 26.8125 866.282 26.8125ZM889.875 28.8478L889.793 29.6701C889.793 30.7802 890.535 31.4175 891.73 31.4175C892.657 31.4175 893.481 31.1503 894.409 30.6774C894.491 30.6774 894.594 30.5952 894.676 30.5952C894.862 30.5952 894.944 30.6774 895.047 30.7802C895.13 30.8625 895.315 31.1503 895.315 31.1503C895.501 31.4175 895.686 31.7876 895.686 32.0754C895.686 32.5277 895.418 33.0005 895.047 33.1855C894.038 33.7406 892.822 34.0078 891.524 34.0078C890.04 34.0078 888.845 33.6378 887.918 32.8977C886.991 32.0754 886.434 30.9653 886.434 29.5673V25.9697C886.434 23.1121 888.289 21.3441 891.441 21.3441C894.491 21.3441 896.263 23.0093 896.263 25.9697V28.1899C896.263 28.4572 895.995 28.745 895.707 28.745H889.875V28.8478ZM889.793 26.8125H893.317V25.8874C893.317 24.7773 892.678 24.0372 891.565 24.0372C890.452 24.0372 889.814 24.6745 889.814 25.8874V26.8125H889.793ZM835.354 33.8228H836.652C836.92 33.8228 837.208 33.5556 837.208 33.2678V26.4425C837.208 23.2971 835.539 21.4469 832.757 21.4469C831.933 21.4469 831.006 21.6319 830.449 21.8169V18.4043C830.449 17.6642 829.811 17.0269 829.069 17.0269H827.771C827.503 17.0269 827.214 17.2942 827.214 17.582V33.2883C827.214 33.5556 827.482 33.8434 827.771 33.8434H829.893C830.161 33.8434 830.449 33.5761 830.449 33.2883V24.5923C830.903 24.4073 831.562 24.325 832.015 24.325C833.396 24.325 833.952 24.9623 833.952 26.5453V32.5482C834.055 33.1855 834.612 33.8228 835.354 33.8228ZM849.324 26.0725V29.4851C849.324 32.3426 847.387 34.1106 844.131 34.1106C840.979 34.1106 838.939 32.3632 838.939 29.4851V26.0725C838.939 23.2149 840.876 21.4469 844.131 21.4469C847.387 21.4469 849.324 23.2149 849.324 26.0725ZM846.089 26.0725C846.089 24.9623 845.45 24.2222 844.234 24.2222C843.019 24.2222 842.38 24.8595 842.38 26.0725V29.4851C842.38 30.5952 843.019 31.2325 844.234 31.2325C845.45 31.2325 846.089 30.5952 846.089 29.4851V26.0725ZM825.442 24.51C825.442 27.4498 823.217 29.4851 820.27 29.4851C819.529 29.4851 818.89 29.4029 818.23 29.115V33.2678C818.23 33.535 817.963 33.8228 817.674 33.8228H815.552C815.284 33.8228 814.995 33.5556 814.995 33.2678V18.5893C814.995 18.2193 815.263 17.952 815.552 17.8492C816.932 17.397 818.333 17.1092 819.817 17.1092C823.155 17.1092 825.463 19.1444 825.463 22.2898C825.442 22.2898 825.442 24.51 825.442 24.51ZM822.125 22.1048C822.125 20.6246 821.115 19.8845 819.714 19.8845C818.89 19.8845 818.333 20.1517 818.333 20.1517V26.2575C818.89 26.5247 819.158 26.6275 819.817 26.6275C821.198 26.6275 822.228 25.8052 822.228 24.4073V22.1048H822.125ZM885.26 24.51C885.26 27.4704 883.034 29.5056 880.067 29.5056C879.325 29.5056 878.687 29.4234 878.027 29.1356V33.2883C878.027 33.5556 877.759 33.8434 877.471 33.8434H875.349C875.081 33.8434 874.792 33.5761 874.792 33.2883V18.5893C874.792 18.2193 875.06 17.952 875.349 17.8492C876.729 17.397 878.13 17.1092 879.614 17.1092C882.952 17.1092 885.26 19.1444 885.26 22.2898V24.51ZM881.922 22.1048C881.922 20.6246 880.912 19.8845 879.511 19.8845C878.687 19.8845 878.13 20.1517 878.13 20.1517V26.2575C878.687 26.5247 878.955 26.6275 879.614 26.6275C880.994 26.6275 882.025 25.8052 882.025 24.4073V22.1048H881.922Z" fill="white"/>
<path id="Vector_29" d="M798.326 18.6716C798.326 18.0343 797.769 17.4792 797.13 17.4792H794.905L789.816 11.6613C789.362 11.1062 788.62 10.9212 787.879 11.1062L786.127 11.6613C785.859 11.7435 785.756 12.1136 785.942 12.2986L791.505 17.5614H783.078C782.81 17.5614 782.624 17.7465 782.624 18.0137V18.9388C782.624 19.5761 783.181 20.1312 783.819 20.1312H785.118V24.5923C785.118 27.9227 786.869 29.8551 789.836 29.8551C790.763 29.8551 791.505 29.7729 792.432 29.4028V32.3632C792.432 33.1855 793.071 33.8434 793.916 33.8434H795.214C795.482 33.8434 795.771 33.5761 795.771 33.2883V20.0901H797.893C798.161 20.0901 798.346 19.905 798.346 19.6378C798.326 19.5967 798.326 18.6716 798.326 18.6716ZM792.391 26.6275C791.835 26.8948 791.093 26.9976 790.537 26.9976C789.053 26.9976 788.311 26.2575 788.311 24.5923V20.1517H792.391V26.6275Z" fill="white"/>
</g>
</g>
</g>
</g>
</g>
<g id="Frame 2147225724">
<g id="Third Party Brand Logos_6">
<g id="_Mark_6">
<g id="uber_logo.svg" clip-path="url(#clip5_0_1)">
<g id="Group_3">
<path id="Vector_30" d="M947.072 26.4794V14.5423H944.194V26.6296C944.194 31.1717 947.371 34.1747 951.481 34.1747C953.499 34.1747 955.255 33.3864 956.563 32.0351V33.8369H959.403V14.5423H956.526V26.4794C956.526 29.5575 954.471 31.6221 951.818 31.6221C949.127 31.5846 947.072 29.5951 947.072 26.4794ZM962.243 33.8744H964.971V32.1101C966.242 33.424 968.036 34.2123 969.979 34.2123C974.089 34.2123 977.34 30.9464 977.34 26.8548C977.34 22.7631 974.089 19.4973 969.979 19.4973C968.036 19.4973 966.279 20.2856 965.009 21.5995V14.5423H962.243V33.8744ZM964.971 26.8548C964.971 24.1145 967.139 21.9748 969.792 21.9748C972.445 21.9748 974.612 24.1145 974.612 26.8548C974.612 29.5575 972.445 31.7347 969.792 31.7347C967.101 31.7347 964.971 29.5575 964.971 26.8548ZM978.985 26.8173C978.985 31.0215 982.236 34.1747 986.421 34.1747C988.962 34.1747 991.055 33.0486 992.475 31.1717L990.457 29.6701C989.41 31.0591 988.028 31.7347 986.421 31.7347C984.067 31.7347 982.161 30.008 981.787 27.7182H993.185V26.8173C993.185 22.613 990.233 19.4973 986.197 19.4973C982.086 19.4973 978.985 22.8382 978.985 26.8173ZM986.122 21.9373C988.177 21.9373 989.896 23.3637 990.382 25.541H981.825C982.348 23.3637 984.067 21.9373 986.122 21.9373ZM1002.41 22.2751V19.685H1001.44C999.911 19.685 998.79 20.3982 998.08 21.5244V19.7976H995.389V33.8744H998.155V25.8413C998.155 23.664 999.463 22.2376 1001.29 22.2376H1002.41V22.2751Z" fill="white"/>
</g>
</g>
</g>
</g>
</g>
<g id="Frame 2147225721">
<g id="Third Party Brand Logos_7">
<g id="swiggy_logo.svg" clip-path="url(#clip6_0_1)">
<path id="Vector_31" d="M1095.94 32.8881C1094.4 32.8881 1093.11 32.5531 1092.05 31.8831C1091 31.1991 1090.24 30.2469 1089.79 29.0266L1092.82 27.242C1093.43 28.6842 1094.51 29.4072 1096.05 29.4072C1097.44 29.4072 1098.13 28.984 1098.13 28.1347C1098.13 27.6586 1097.91 27.3023 1097.45 27.062C1096.99 26.7799 1096.15 26.4735 1094.95 26.1488C1093.72 25.8072 1092.68 25.3164 1091.83 24.6787C1090.9 23.9058 1090.43 22.8125 1090.43 21.399C1090.43 19.9847 1090.93 18.8033 1091.94 17.943C1092.97 17.079 1094.18 16.6485 1095.59 16.6485C1096.85 16.6485 1097.96 16.9519 1098.92 17.5617C1099.89 18.1575 1100.65 19.0252 1101.21 20.1713L1098.24 21.9346C1097.69 20.7289 1096.8 20.1294 1095.59 20.1294C1095.07 20.1294 1094.67 20.2418 1094.38 20.4645C1094.09 20.6863 1093.94 20.9685 1093.94 21.3108C1093.94 21.6811 1094.11 22.0161 1094.47 22.3159C1094.85 22.612 1095.59 22.9257 1096.7 23.2534L1098.13 23.7228C1098.5 23.8426 1098.92 24.0439 1099.41 24.3253C1099.93 24.5934 1100.33 24.8829 1100.59 25.1966C1101.29 25.9688 1101.65 26.9356 1101.65 28.0957C1101.65 29.5658 1101.12 30.7443 1100.07 31.6186C1099.01 32.4649 1097.64 32.8918 1095.94 32.8918V32.8881ZM1112.92 27.4007L1114.5 21.4232H1118.02L1114.5 32.5781H1111.43L1109.67 26.6212L1107.91 32.5781H1104.84L1101.33 21.4225H1104.84L1106.42 27.4L1108.13 21.4225H1111.21L1112.92 27.4L1112.92 27.4007ZM1121.92 19.8613C1121.74 20.0486 1121.52 20.1966 1121.28 20.2961C1121.05 20.3956 1120.79 20.4444 1120.53 20.4395C1120.27 20.4424 1120.02 20.3928 1119.77 20.2936C1119.53 20.1943 1119.31 20.0474 1119.13 19.8613C1118.94 19.6738 1118.8 19.4509 1118.7 19.2057C1118.6 18.9604 1118.55 18.6977 1118.56 18.433C1118.56 17.8827 1118.75 17.414 1119.13 17.0298C1119.52 16.6272 1119.99 16.4266 1120.53 16.4266C1121.08 16.4266 1121.54 16.6272 1121.92 17.029C1122.31 17.4169 1122.51 17.8827 1122.51 18.4323C1122.51 18.9833 1122.31 19.4594 1121.92 19.8613ZM1122.18 32.5744H1118.89V21.4196H1122.18V32.5752V32.5744ZM1132.21 22.5591V21.4203H1135.41V32.0138C1135.41 33.7698 1134.85 35.0922 1133.72 35.9841C1132.61 36.8907 1131.24 37.3455 1129.62 37.3455C1127.13 37.3455 1125.39 36.4463 1124.41 34.6477L1127.22 32.9976C1127.74 33.9358 1128.57 34.4045 1129.73 34.4045C1130.52 34.4045 1131.13 34.1966 1131.55 33.7801C1131.99 33.3642 1132.21 32.775 1132.21 32.0168V30.9912C1131.44 31.9573 1130.37 32.44 1129.01 32.44C1127.47 32.44 1126.18 31.8904 1125.14 30.7898C1124.12 29.6893 1123.6 28.3492 1123.6 26.7733C1123.6 25.1966 1124.12 23.8676 1125.14 22.7809C1126.17 21.6664 1127.45 21.1095 1129.01 21.1095C1130.37 21.1095 1131.44 21.5929 1132.21 22.5591ZM1127.64 28.6497C1128.15 29.125 1128.79 29.3616 1129.55 29.3616C1130.31 29.3616 1130.95 29.125 1131.46 28.6489C1131.96 28.1876 1132.21 27.5631 1132.21 26.7769C1132.21 25.9908 1131.96 25.3627 1131.46 24.9035C1130.95 24.4281 1130.31 24.1916 1129.55 24.1916C1128.79 24.1916 1128.15 24.4281 1127.64 24.9042C1127.14 25.3663 1126.89 25.9901 1126.89 26.7769C1126.89 27.5631 1127.14 28.1912 1127.64 28.6497ZM1145.45 22.5591V21.4203H1148.66V32.0138C1148.66 33.7698 1148.09 35.0922 1146.96 35.9841C1145.85 36.8907 1144.48 37.3455 1142.86 37.3455C1140.37 37.3455 1138.63 36.4463 1137.65 34.6477L1140.46 32.9976C1140.98 33.9358 1141.81 34.4045 1142.97 34.4045C1143.76 34.4045 1144.37 34.1966 1144.79 33.7801C1145.23 33.3642 1145.45 32.775 1145.45 32.0168V30.9912C1144.68 31.9573 1143.61 32.44 1142.25 32.44C1140.71 32.44 1139.42 31.8904 1138.38 30.7898C1137.36 29.6893 1136.84 28.3492 1136.84 26.7733C1136.84 25.1966 1137.36 23.8676 1138.38 22.7809C1139.41 21.6664 1140.69 21.1095 1142.25 21.1095C1143.61 21.1095 1144.68 21.5929 1145.45 22.5591ZM1140.88 28.6497C1141.4 29.125 1142.03 29.3616 1142.79 29.3616C1143.55 29.3616 1144.19 29.125 1144.7 28.6489C1145.2 28.1876 1145.45 27.5631 1145.45 26.7769C1145.45 25.9908 1145.2 25.3627 1144.7 24.9035C1144.19 24.4281 1143.55 24.1916 1142.79 24.1916C1142.03 24.1916 1141.39 24.4281 1140.88 24.9042C1140.39 25.3663 1140.14 25.9901 1140.14 26.7769C1140.14 27.5631 1140.39 28.1912 1140.88 28.6497ZM1155.49 28.2471L1157.55 21.4196H1161.07L1157.31 32.2394C1156.7 33.9777 1155.88 35.2296 1154.87 35.9878C1153.88 36.76 1152.6 37.1097 1151.05 37.0355V33.9108C1151.81 33.9108 1152.4 33.7698 1152.81 33.4876C1153.22 33.2195 1153.55 32.7434 1153.8 32.0594L1149.43 21.4196H1153.05L1155.49 28.2471ZM1046.33 25.0982C1046.33 17.4772 1046.33 13.6685 1048.35 11.0692C1048.8 10.495 1049.31 9.97547 1049.87 9.52119C1052.43 7.46552 1056.18 7.46552 1063.68 7.46552C1071.19 7.46552 1074.94 7.46552 1077.49 9.52119C1078.06 9.97547 1078.57 10.495 1079.02 11.0692C1081.04 13.6649 1081.04 17.4772 1081.04 25.0982C1081.04 32.7192 1081.04 36.5278 1079.02 39.1264C1078.57 39.7007 1078.06 40.2201 1077.49 40.6744C1074.94 42.7308 1071.19 42.7308 1063.68 42.7308C1056.18 42.7308 1052.43 42.7308 1049.87 40.6744C1049.31 40.2201 1048.8 39.7007 1048.35 39.1264C1046.33 36.5307 1046.33 32.7192 1046.33 25.0982Z" fill="#FE5005"/>
<path id="Vector_32" fill-rule="evenodd" clip-rule="evenodd" d="M1065 21.4432V17.7896C1065 17.6756 1064.95 17.5665 1064.87 17.486C1064.79 17.4055 1064.69 17.3602 1064.57 17.3598C1064.46 17.3603 1064.35 17.4058 1064.28 17.4863C1064.2 17.5668 1064.15 17.6758 1064.15 17.7896V22.0816C1064.15 22.3248 1064.35 22.5188 1064.58 22.5188H1064.99C1071 22.5188 1071.62 22.8362 1071.25 24.1234C1071.23 24.1865 1071.21 24.2468 1071.19 24.3144L1071.18 24.3526C1069.6 29.1803 1065.34 35.2216 1064.08 36.9496C1064.04 37.0063 1063.98 37.0523 1063.92 37.0841C1063.86 37.1158 1063.79 37.1324 1063.72 37.1324C1063.65 37.1324 1063.58 37.1158 1063.52 37.0841C1063.46 37.0523 1063.41 37.0063 1063.37 36.9496C1062.61 35.9056 1060.75 33.2821 1059.05 30.3051C1058.93 30.0332 1058.88 29.3992 1060.76 29.3992H1063.07C1063.2 29.3992 1063.3 29.505 1063.3 29.635V31.5254C1063.3 31.7509 1063.46 31.9589 1063.69 31.9772C1063.75 31.9825 1063.81 31.9739 1063.87 31.9519C1063.93 31.93 1063.98 31.8952 1064.02 31.8501C1064.06 31.811 1064.09 31.7639 1064.12 31.7116C1064.14 31.6594 1064.15 31.6033 1064.15 31.5467V28.9826C1064.15 28.865 1064.1 28.7525 1064.02 28.6694C1063.94 28.5864 1063.83 28.5394 1063.71 28.5389H1059.05C1058.24 28.5389 1057.75 27.8336 1057.42 27.1914C1056.41 25.0329 1055.68 22.903 1055.68 21.2243C1055.68 16.9263 1059.06 13.0574 1063.72 13.0574C1067.87 13.0574 1071.01 16.1211 1071.65 19.8283C1071.65 19.8599 1071.67 20.001 1071.68 20.0289C1071.84 21.8487 1067.17 21.6408 1065.21 21.6511C1065.18 21.6513 1065.15 21.646 1065.13 21.6354C1065.1 21.6248 1065.08 21.6093 1065.06 21.5896C1065.04 21.5699 1065.02 21.5465 1065.01 21.5207C1065 21.495 1065 21.4674 1065 21.4395V21.4432Z" fill="white"/>
</g>
</g>
</g>
<g id="Frame 2147225725">
<g id="_Mark_7">
<g id="accenture_logo.svg" clip-path="url(#clip7_0_1)">
<g id="Group_4">
<path id="Vector_33" d="M1272.33 12.2594L1278.82 9.84166L1272.33 7.3549V3.97013L1283.45 8.46013V11.2232L1272.33 15.7132V12.2594Z" fill="#A100FF"/>
<path id="Vector_34" d="M1210.96 33.6723C1208.62 33.6723 1206.68 32.498 1206.68 29.873V29.7349C1206.68 26.5574 1209.45 25.4521 1212.83 25.4521H1214.42V24.8304C1214.42 23.518 1213.86 22.7581 1212.48 22.7581C1211.24 22.7581 1210.62 23.4489 1210.55 24.416H1207.1C1207.37 21.5147 1209.65 20.1332 1212.69 20.1332C1215.8 20.1332 1218.07 21.4457 1218.07 24.6923V33.396H1214.55V31.8763C1213.86 32.8434 1212.69 33.6723 1210.96 33.6723ZM1214.42 29.1132V27.8698H1212.97C1211.17 27.8698 1210.27 28.3534 1210.27 29.5277V29.6658C1210.27 30.5638 1210.83 31.1855 1212.07 31.1855C1213.31 31.1164 1214.42 30.4257 1214.42 29.1132ZM1226.29 33.6723C1222.7 33.6723 1220.08 31.4618 1220.08 27.0409V26.8337C1220.08 22.4127 1222.84 20.0641 1226.29 20.0641C1229.26 20.0641 1231.67 21.5838 1231.95 24.9686H1228.5C1228.29 23.7252 1227.6 22.8963 1226.36 22.8963C1224.84 22.8963 1223.74 24.1397 1223.74 26.6955V27.11C1223.74 29.7349 1224.7 30.9092 1226.36 30.9092C1227.6 30.9092 1228.5 30.0112 1228.71 28.5606H1232.02C1231.81 31.6 1229.81 33.6723 1226.29 33.6723ZM1239.82 33.6723C1236.23 33.6723 1233.61 31.4618 1233.61 27.0409V26.8337C1233.61 22.4127 1236.37 20.0641 1239.82 20.0641C1242.79 20.0641 1245.21 21.5838 1245.48 24.9686H1242.03C1241.82 23.7252 1241.13 22.8963 1239.89 22.8963C1238.37 22.8963 1237.27 24.1397 1237.27 26.6955V27.11C1237.27 29.7349 1238.23 30.9092 1239.89 30.9092C1241.13 30.9092 1242.03 30.0112 1242.24 28.5606H1245.55C1245.34 31.6 1243.34 33.6723 1239.82 33.6723ZM1253.42 33.6723C1249.69 33.6723 1247.14 31.4618 1247.14 27.11V26.8337C1247.14 22.4818 1249.83 20.0641 1253.35 20.0641C1256.6 20.0641 1259.29 21.8601 1259.29 26.212V27.8007H1250.8C1250.94 30.1494 1251.97 31.0474 1253.49 31.0474C1254.87 31.0474 1255.63 30.2875 1255.91 29.3895H1259.29C1258.88 31.8072 1256.8 33.6723 1253.42 33.6723ZM1250.87 25.383H1255.7C1255.63 23.4489 1254.73 22.62 1253.28 22.62C1252.18 22.689 1251.14 23.3107 1250.87 25.383ZM1261.5 20.4095H1265.16V22.3437C1265.78 21.1003 1267.09 20.1332 1269.09 20.1332C1271.44 20.1332 1273.03 21.5838 1273.03 24.6923V33.396H1269.37V25.2449C1269.37 23.7252 1268.75 23.0344 1267.44 23.0344C1266.19 23.0344 1265.16 23.7943 1265.16 25.4521V33.396H1261.5V20.4095ZM1279.72 16.4721V20.4095H1282.21V23.1035H1279.72V29.2514C1279.72 30.2184 1280.14 30.702 1281.04 30.702C1281.59 30.702 1281.93 30.6329 1282.28 30.4947V33.3269C1281.86 33.465 1281.1 33.6032 1280.21 33.6032C1277.38 33.6032 1276.07 32.2907 1276.07 29.6658V23.1035H1274.55V20.4095H1276.07V17.9918L1279.72 16.4721ZM1295.88 33.396H1292.29V31.4618C1291.67 32.7052 1290.42 33.6723 1288.49 33.6723C1286.14 33.6723 1284.42 32.2217 1284.42 29.1823V20.4095H1288.08V28.6987C1288.08 30.2184 1288.7 30.9092 1289.94 30.9092C1291.18 30.9092 1292.22 30.0803 1292.22 28.4915V20.4095H1295.88V33.396ZM1298.57 20.4095H1302.23V22.8272C1302.99 21.1003 1304.23 20.2714 1306.16 20.2714V23.8634C1303.68 23.8634 1302.23 24.6232 1302.23 26.7646V33.465H1298.57V20.4095ZM1313.55 33.6723C1309.82 33.6723 1307.27 31.4618 1307.27 27.11V26.8337C1307.27 22.4818 1309.96 20.0641 1313.48 20.0641C1316.73 20.0641 1319.42 21.8601 1319.42 26.212V27.8007H1311C1311.14 30.1494 1312.17 31.0474 1313.69 31.0474C1315.07 31.0474 1315.83 30.2875 1316.11 29.3895H1319.49C1318.94 31.8072 1316.93 33.6723 1313.55 33.6723ZM1310.93 25.383H1315.83C1315.76 23.4489 1314.86 22.62 1313.41 22.62C1312.31 22.689 1311.27 23.3107 1310.93 25.383Z" fill="white"/>
</g>
</g>
</g>
</g>
<g id="Frame 2147225731">
<g id="_Mark_8">
<g id="Group_5">
<path id="Vector_35" fill-rule="evenodd" clip-rule="evenodd" d="M1453.27 25.8767C1453.27 20.2945 1450.58 15.8899 1445.42 15.8899C1440.25 15.8899 1437.12 20.2945 1437.12 25.833C1437.12 32.3964 1440.81 35.7108 1446.12 35.7108C1448.71 35.7108 1450.66 35.1221 1452.14 34.2935V29.9324C1450.66 30.6738 1448.97 31.1317 1446.81 31.1317C1444.7 31.1317 1442.83 30.3903 1442.6 27.8173H1453.23C1453.23 27.5339 1453.27 26.4 1453.27 25.8767ZM1442.53 23.8052C1442.53 21.3412 1444.03 20.3163 1445.4 20.3163C1446.73 20.3163 1448.14 21.3412 1448.14 23.8052H1442.53Z" fill="#635BFF"/>
<path id="Vector_36" fill-rule="evenodd" clip-rule="evenodd" d="M1428.73 15.8899C1426.59 15.8899 1425.22 16.8929 1424.46 17.5907L1424.18 16.2387H1419.4V41.6636L1424.83 40.508L1424.85 34.3371C1425.64 34.904 1426.79 35.7108 1428.7 35.7108C1432.6 35.7108 1436.14 32.5709 1436.14 25.6586C1436.12 19.3351 1432.53 15.8899 1428.73 15.8899ZM1427.42 30.9137C1426.14 30.9137 1425.38 30.4558 1424.85 29.8888L1424.83 21.7991C1425.4 21.1667 1426.18 20.7306 1427.42 20.7306C1429.4 20.7306 1430.77 22.9548 1430.77 25.8112C1430.77 28.7331 1429.42 30.9137 1427.42 30.9137Z" fill="#635BFF"/>
<path id="Vector_37" fill-rule="evenodd" clip-rule="evenodd" d="M1411.92 14.6032L1417.38 13.4257V8.99924L1411.92 10.1549V14.6032Z" fill="#635BFF"/>
<path id="Vector_38" d="M1417.38 16.2571H1411.92V35.3366H1417.38V16.2571Z" fill="#635BFF"/>
<path id="Vector_39" fill-rule="evenodd" clip-rule="evenodd" d="M1406.07 17.8734L1405.72 16.2598H1401.02V35.3394H1406.46V22.4089C1407.74 20.7299 1409.92 21.0351 1410.59 21.275V16.2598C1409.89 15.9981 1407.35 15.5184 1406.07 17.8734Z" fill="#635BFF"/>
<path id="Vector_40" fill-rule="evenodd" clip-rule="evenodd" d="M1395.19 11.5305L1389.89 12.6644L1389.87 30.1303C1389.87 33.3575 1392.28 35.7343 1395.5 35.7343C1397.28 35.7343 1398.59 35.4072 1399.3 35.0147V30.5883C1398.61 30.8717 1395.17 31.8748 1395.17 28.6476V20.9067H1399.3V16.2622H1395.17L1395.19 11.5305Z" fill="#635BFF"/>
<path id="Vector_41" fill-rule="evenodd" clip-rule="evenodd" d="M1380.49 21.7991C1380.49 20.9487 1381.19 20.6216 1382.34 20.6216C1383.99 20.6216 1386.08 21.1231 1387.73 22.0171V16.8929C1385.93 16.1733 1384.15 15.8899 1382.34 15.8899C1377.93 15.8899 1374.99 18.2012 1374.99 22.0607C1374.99 28.079 1383.25 27.1196 1383.25 29.7144C1383.25 30.7174 1382.38 31.0445 1381.17 31.0445C1379.36 31.0445 1377.06 30.3031 1375.23 29.3001V34.4897C1377.25 35.3619 1379.3 35.7326 1381.17 35.7326C1385.69 35.7326 1388.8 33.4867 1388.8 29.5835C1388.78 23.0856 1380.49 24.2413 1380.49 21.7991Z" fill="#635BFF"/>
</g>
</g>
</g>
<g id="Frame 2147225727">
<g id="Third Party Brand Logos_8">
<g id="_Mark_9">
<g id="Frame 12">
<g id="Group_6">
<path id="Vector_42" d="M1582.08 13.6922V35.1494H1590.22V29.8909C1593.41 32.3753 1596.47 34.7706 1599.61 37.2327V14.9177H1591.58V20.1873C1588.36 17.9926 1585.26 15.8758 1582.07 13.6922H1582.08ZM1564.12 14.8954V35.2163H1565.04C1568.72 35.2163 1572.4 35.2163 1576.08 35.2163C1577.35 35.2163 1578.14 34.6221 1578.46 33.4337C1578.89 31.7849 1579.33 30.1249 1579.77 28.3869C1577.38 28.3869 1575.09 28.3869 1572.8 28.3869C1572.56 28.3869 1572.3 28.4315 1572.09 28.3535C1571.92 28.2978 1571.81 28.0973 1571.68 27.9524C1571.81 27.8188 1571.93 27.6071 1572.1 27.5737C1572.38 27.5068 1572.68 27.5402 1572.98 27.5402C1574.19 27.5402 1575.42 27.5402 1576.68 27.5402V22.538C1575.23 22.538 1573.82 22.5603 1572.41 22.5157C1572.17 22.5157 1571.92 22.2484 1571.68 22.1035C1571.92 21.9698 1572.16 21.7247 1572.4 21.7247C1574.56 21.6913 1576.72 21.7025 1578.88 21.7025C1579.16 21.7025 1579.44 21.7025 1579.8 21.7025C1579.17 19.3517 1578.58 17.1347 1577.99 14.8954H1564.13H1564.12ZM1547.89 14.9066V35.1383C1548.02 35.1717 1548.1 35.2051 1548.17 35.2051C1552.17 35.2051 1556.16 35.2162 1560.16 35.194C1560.36 35.194 1560.7 34.8932 1560.75 34.6703C1561.05 33.6008 1561.29 32.509 1561.54 31.4284C1561.78 30.4368 1562 29.4453 1562.26 28.3535H1555.91V14.8954H1547.89V14.9066ZM1531.68 35.2163H1532.6C1535.74 35.2163 1538.89 35.2163 1542.03 35.2163C1542.82 35.2163 1543.85 35.4502 1544.34 35.0491C1544.84 34.6481 1544.83 33.6008 1545.02 32.8321C1545.37 31.3727 1545.7 29.9132 1546.05 28.3647H1539.69V14.9177H1531.66V35.2274L1531.68 35.2163Z" fill="#2459A5"/>
<path id="Vector_43" d="M1518.76 12.7674C1515.03 20.3431 1511.36 27.7629 1507.65 35.3052C1510.39 35.3052 1512.94 35.3052 1515.49 35.2829C1515.7 35.2829 1515.96 35.0378 1516.09 34.8373C1516.26 34.6034 1516.31 34.3026 1516.42 34.024C1516.7 33.311 1516.79 32.3084 1517.31 31.9518C1517.88 31.5842 1518.85 31.8404 1519.65 31.7959C1520.12 31.7625 1520.37 31.9073 1520.52 32.3752C1520.77 33.1885 1521.06 33.9906 1521.42 34.7593C1521.53 35.0044 1521.89 35.2829 1522.14 35.2829C1524.59 35.3164 1527.04 35.3052 1529.49 35.2941C1529.58 35.2941 1529.67 35.2384 1529.81 35.205C1526.13 27.7406 1522.48 20.3208 1518.76 12.7674ZM1518.77 27.9189C1518.14 27.9189 1517.63 27.3841 1517.64 26.7379C1517.64 26.1363 1518.15 25.635 1518.76 25.6239C1519.39 25.6239 1519.95 26.1475 1519.94 26.7491C1519.94 27.373 1519.39 27.9077 1518.77 27.9077V27.9189Z" fill="#2459A5"/>
</g>
</g>
</g>
</g>
</g>
<g id="Frame 2147225729">
<g id="Third Party Brand Logos_9">
<g id="_Mark_10">
<g id="zoomcar_logo.svg" clip-path="url(#clip8_0_1)">
<g id="Droid-mix">
<g id="color-logo">
<g id="Group 6">
<g id="Group-3">
<g id="Mask group">
<mask id="mask0_0_1" style="mask-type:luminance" maskUnits="userSpaceOnUse" x="1647" y="15" width="14" height="3">
<g id="Group_7">
<path id="Vector_44" d="M1647.38 17.4188V15.3039H1660.84V17.4188H1647.38V17.4188Z" fill="white"/>
</g>
</mask>
<g mask="url(#mask0_0_1)">
<path id="Fill-1" fill-rule="evenodd" clip-rule="evenodd" d="M1647.38 17.4188H1658.07C1658.47 17.4188 1658.84 17.2646 1659.13 16.9836L1660.84 15.3039H1650.04C1648.87 15.3039 1647.64 16.3321 1647.38 17.4188Z" fill="#6DBE45"/>
</g>
</g>
</g>
<path id="Fill-4" fill-rule="evenodd" clip-rule="evenodd" d="M1648.92 21.2143H1654.25C1654.65 21.2143 1655.02 21.0601 1655.31 20.7804L1657.02 19.0994H1651.58C1650.41 19.0994 1649.18 20.1276 1648.92 21.2143Z" fill="#6DBE45"/>
<path id="Fill-6" fill-rule="evenodd" clip-rule="evenodd" d="M1657.19 29.0117L1652.31 33.8495C1651.79 34.3829 1651.06 34.7173 1650.25 34.7173C1648.67 34.7173 1647.38 33.4404 1647.38 31.8639C1647.38 30.2886 1648.67 29.0117 1650.25 29.0117H1657.19Z" fill="#309046"/>
<g id="Group-10">
<g id="Mask group_2">
<mask id="mask1_0_1" style="mask-type:luminance" maskUnits="userSpaceOnUse" x="1649" y="15" width="18" height="14">
<g id="Group_8">
<path id="Vector_45" d="M1649.38 15.2345H1666.93V28.6312H1649.38V15.2345Z" fill="white"/>
</g>
</mask>
<g mask="url(#mask1_0_1)">
<path id="Fill-8" fill-rule="evenodd" clip-rule="evenodd" d="M1664.05 15.2344C1663.25 15.2344 1662.48 15.5738 1661.93 16.1644L1649.38 28.6311C1649.66 28.5553 1649.95 28.5143 1650.25 28.5143H1657.62L1666.08 20.1045C1666.63 19.5661 1666.93 18.85 1666.93 18.0878C1666.93 16.5138 1665.64 15.2344 1664.05 15.2344Z" fill="#6CB845"/>
</g>
</g>
</g>
<g id="Group-13">
<g id="Mask group_3">
<mask id="mask2_0_1" style="mask-type:luminance" maskUnits="userSpaceOnUse" x="1651" y="29" width="16" height="6">
<g id="Group_9">
<path id="Vector_46" d="M1651.89 34.7173H1666.94V29.0119H1651.89V34.7173Z" fill="white"/>
</g>
</mask>
<g mask="url(#mask2_0_1)">
<path id="Fill-11" fill-rule="evenodd" clip-rule="evenodd" d="M1657.49 29.3152L1652.62 34.153C1652.62 34.153 1652.13 34.6478 1651.89 34.7174H1666.94C1666.65 31.5022 1663.92 29.0119 1660.61 29.0119H1658.58H1657.8L1657.49 29.3152Z" fill="#6DBE45"/>
</g>
</g>
</g>
</g>
<path id="Fill-14" fill-rule="evenodd" clip-rule="evenodd" d="M1686.82 22.4297C1686.82 23.637 1687.67 24.4812 1688.81 24.4812C1689.94 24.4812 1690.8 23.637 1690.8 22.4297C1690.8 21.2225 1689.94 20.3783 1688.81 20.3783C1687.67 20.3783 1686.82 21.2225 1686.82 22.4297ZM1692.86 22.4297C1692.86 24.6739 1691.14 26.3487 1688.81 26.3487C1686.48 26.3487 1684.77 24.6739 1684.77 22.4297C1684.77 20.1855 1686.48 18.5108 1688.81 18.5108C1691.14 18.5108 1692.86 20.1855 1692.86 22.4297Z" fill="white"/>
<path id="Fill-16" fill-rule="evenodd" clip-rule="evenodd" d="M1695.72 22.4297C1695.72 23.637 1696.57 24.4812 1697.7 24.4812C1698.84 24.4812 1699.69 23.637 1699.69 22.4297C1699.69 21.2225 1698.84 20.3783 1697.7 20.3783C1696.57 20.3783 1695.72 21.2225 1695.72 22.4297ZM1701.75 22.4297C1701.75 24.6739 1700.03 26.3487 1697.7 26.3487C1695.38 26.3487 1693.67 24.6739 1693.67 22.4297C1693.67 20.1855 1695.38 18.5108 1697.7 18.5108C1700.03 18.5108 1701.75 20.1855 1701.75 22.4297Z" fill="white"/>
<path id="Fill-18" fill-rule="evenodd" clip-rule="evenodd" d="M1715.14 21.4158V26.1566H1713.92C1713.48 26.1566 1713.14 25.8085 1713.14 25.3795V22.0611C1713.14 20.9844 1712.59 20.3938 1711.68 20.3938C1710.81 20.3938 1710.09 20.9545 1710.09 22.076V26.1566H1708.86C1708.43 26.1566 1708.08 25.8085 1708.08 25.3795V22.0611C1708.08 20.9844 1707.54 20.3938 1706.62 20.3938C1705.76 20.3938 1705.04 20.9545 1705.04 22.076V26.1566H1703.81C1703.38 26.1566 1703.03 25.8085 1703.03 25.3795V18.7104H1704.2C1704.64 18.7104 1704.99 19.0585 1704.99 19.4874V19.5856C1705.52 18.7949 1706.34 18.5102 1707.19 18.5102C1708.27 18.5102 1709.15 18.9951 1709.65 19.7858C1710.23 18.8409 1711.21 18.5102 1712.19 18.5102C1713.95 18.5102 1715.14 19.6851 1715.14 21.4158Z" fill="white"/>
<path id="Fill-20" fill-rule="evenodd" clip-rule="evenodd" d="M1723.34 19.9164L1721.88 21.1236C1721.43 20.6387 1720.94 20.3776 1720.29 20.3776C1719.25 20.3776 1718.41 21.192 1718.41 22.4291C1718.41 23.6737 1719.24 24.4818 1720.28 24.4818C1720.93 24.4818 1721.48 24.1897 1721.91 23.7284L1723.34 24.9506C1722.64 25.8495 1721.59 26.3493 1720.34 26.3493C1717.96 26.3493 1716.36 24.6895 1716.36 22.4291C1716.36 20.1775 1717.96 18.5102 1720.34 18.5102C1721.59 18.5102 1722.65 19.0174 1723.34 19.9164Z" fill="white"/>
<path id="Fill-22" fill-rule="evenodd" clip-rule="evenodd" d="M1725.87 22.4297C1725.87 23.5674 1726.61 24.4812 1727.79 24.4812C1728.94 24.4812 1729.72 23.6047 1729.72 22.4297C1729.72 21.2548 1728.94 20.3783 1727.79 20.3783C1726.61 20.3783 1725.87 21.2921 1725.87 22.4297ZM1731.63 26.1572H1730.44C1730.01 26.1572 1729.66 25.8091 1729.66 25.3789V25.3354C1729.18 25.9334 1728.45 26.3487 1727.42 26.3487C1725.36 26.3487 1723.81 24.6665 1723.81 22.4297C1723.81 20.193 1725.36 18.5108 1727.42 18.5108C1728.45 18.5108 1729.17 18.9261 1729.66 19.5328V18.711H1731.63V26.1572Z" fill="white"/>
<g id="Group-26">
<g id="Mask group_4">
<mask id="mask3_0_1" style="mask-type:luminance" maskUnits="userSpaceOnUse" x="1733" y="18" width="6" height="9">
<g id="Group_10">
<path id="Vector_47" d="M1738.57 18.4967V26.1506H1733.46V18.4967H1738.57Z" fill="white"/>
</g>
</mask>
<g mask="url(#mask3_0_1)">
<path id="Fill-24" fill-rule="evenodd" clip-rule="evenodd" d="M1738.57 18.6584L1738.27 20.6514C1737.94 20.5035 1737.46 20.4115 1737.05 20.4115C1736.12 20.4115 1735.48 20.9809 1735.48 22.0887V26.1506H1734.24C1733.81 26.1506 1733.46 25.8025 1733.46 25.3711V18.6957H1734.63C1735.06 18.6957 1735.41 19.0451 1735.41 19.4752V19.5125C1735.88 18.8113 1736.6 18.4967 1737.52 18.4967C1737.95 18.4967 1738.29 18.5577 1738.57 18.6584Z" fill="white"/>
</g>
</g>
</g>
<path id="Fill-27" fill-rule="evenodd" clip-rule="evenodd" d="M1684.11 15.3947L1677.64 15.3972C1676.54 15.3972 1675.65 16.2812 1675.65 17.3728H1681.25L1675.14 25.11C1674.81 25.5352 1675.11 26.1568 1675.65 26.1568H1684.11C1684.11 25.0652 1683.22 24.1812 1682.13 24.1812H1678.5L1684.61 16.4366C1684.95 16.0138 1684.65 15.3947 1684.11 15.3947Z" fill="white"/>
<path id="Fill-29" fill-rule="evenodd" clip-rule="evenodd" d="M1680.75 33.2164C1680.65 32.9292 1680.54 32.6196 1680.42 32.2864C1680.3 31.9544 1680.17 31.6225 1680.03 31.2905C1679.9 30.9585 1679.76 30.6353 1679.61 30.3207C1679.46 30.0049 1679.32 29.7177 1679.17 29.4541L1678.26 33.2164H1677.34L1678.58 28.0628H1679.33C1679.47 28.2866 1679.62 28.5415 1679.77 28.83C1679.92 29.1172 1680.07 29.4181 1680.21 29.7326C1680.35 30.0472 1680.49 30.363 1680.63 30.6813C1680.76 30.9983 1680.88 31.2979 1680.98 31.5814L1681.81 28.0628H1682.74L1681.5 33.2164H1680.75Z" fill="white"/>
<path id="Fill-31" fill-rule="evenodd" clip-rule="evenodd" d="M1685.02 29.9674C1684.87 29.9674 1684.73 29.9959 1684.59 30.0556C1684.46 30.1153 1684.34 30.1986 1684.23 30.3018C1684.13 30.4062 1684.04 30.5281 1683.96 30.6686C1683.88 30.8116 1683.83 30.9633 1683.79 31.1274C1684.39 31.1075 1684.83 31.0354 1685.1 30.911C1685.37 30.7867 1685.5 30.6014 1685.5 30.354C1685.5 30.2546 1685.47 30.165 1685.4 30.0867C1685.32 30.0059 1685.2 29.9674 1685.02 29.9674ZM1682.85 31.81C1682.85 31.4792 1682.9 31.1585 1683.01 30.8476C1683.11 30.538 1683.27 30.2633 1683.47 30.0233C1683.67 29.7833 1683.91 29.5906 1684.2 29.4464C1684.48 29.3034 1684.8 29.2313 1685.15 29.2313C1685.53 29.2313 1685.82 29.327 1686.03 29.521C1686.24 29.715 1686.35 29.9624 1686.35 30.2645C1686.35 30.5766 1686.27 30.829 1686.12 31.0229C1685.96 31.2169 1685.76 31.3673 1685.51 31.4767C1685.27 31.5862 1684.99 31.6595 1684.68 31.7005C1684.37 31.7391 1684.05 31.7639 1683.73 31.7739C1683.73 31.7838 1683.73 31.7938 1683.73 31.8037V31.8783C1683.73 32.3284 1684.01 32.5547 1684.58 32.5547C1684.92 32.5547 1685.26 32.4851 1685.6 32.3458L1685.67 33.0756C1685.56 33.1291 1685.39 33.1838 1685.17 33.2385C1684.95 33.2932 1684.7 33.3206 1684.42 33.3206C1684.14 33.3206 1683.9 33.2808 1683.7 33.2025C1683.51 33.1217 1683.34 33.0135 1683.22 32.8742C1683.09 32.7362 1683 32.5758 1682.94 32.3943C1682.88 32.214 1682.85 32.0188 1682.85 31.81Z" fill="white"/>
<path id="Fill-33" fill-rule="evenodd" clip-rule="evenodd" d="M1687.49 33.2164C1687.36 32.7104 1687.25 32.1248 1687.15 31.4583C1687.05 30.7919 1686.98 30.082 1686.95 29.3273H1687.88C1687.88 29.5461 1687.89 29.7811 1687.9 30.0335C1687.92 30.2871 1687.93 30.5408 1687.95 30.7969C1687.97 31.0518 1688 31.298 1688.03 31.5354C1688.05 31.7741 1688.09 31.9892 1688.12 32.1832C1688.25 32.0141 1688.39 31.8114 1688.54 31.5777C1688.69 31.3415 1688.83 31.094 1688.97 30.833C1689.11 30.5731 1689.24 30.312 1689.36 30.0484C1689.47 29.7861 1689.56 29.5461 1689.63 29.3273H1690.57C1690.45 29.6692 1690.3 30.0223 1690.12 30.3841C1689.94 30.7459 1689.75 31.0978 1689.54 31.4384C1689.33 31.7816 1689.12 32.1049 1688.89 32.4132C1688.67 32.7216 1688.46 32.9876 1688.26 33.2164H1687.49Z" fill="white"/>
<path id="Fill-35" fill-rule="evenodd" clip-rule="evenodd" d="M1692.74 29.9674C1692.59 29.9674 1692.45 29.9959 1692.31 30.0556C1692.18 30.1153 1692.06 30.1986 1691.95 30.3018C1691.85 30.4062 1691.76 30.5281 1691.68 30.6686C1691.6 30.8116 1691.55 30.9633 1691.51 31.1274C1692.11 31.1075 1692.55 31.0354 1692.82 30.911C1693.09 30.7867 1693.22 30.6014 1693.22 30.354C1693.22 30.2546 1693.19 30.165 1693.11 30.0867C1693.04 30.0059 1692.92 29.9674 1692.74 29.9674ZM1690.57 31.81C1690.57 31.4792 1690.62 31.1585 1690.73 30.8476C1690.83 30.538 1690.99 30.2633 1691.19 30.0233C1691.39 29.7833 1691.63 29.5906 1691.92 29.4464C1692.2 29.3034 1692.52 29.2313 1692.87 29.2313C1693.25 29.2313 1693.54 29.327 1693.75 29.521C1693.96 29.715 1694.07 29.9624 1694.07 30.2645C1694.07 30.5766 1693.99 30.829 1693.83 31.0229C1693.68 31.2169 1693.48 31.3673 1693.23 31.4767C1692.99 31.5862 1692.71 31.6595 1692.4 31.7005C1692.09 31.7391 1691.77 31.7639 1691.45 31.7739C1691.45 31.7838 1691.45 31.7938 1691.45 31.8037V31.8783C1691.45 32.3284 1691.73 32.5547 1692.3 32.5547C1692.64 32.5547 1692.98 32.4851 1693.32 32.3458L1693.39 33.0756C1693.28 33.1291 1693.11 33.1838 1692.89 33.2385C1692.67 33.2932 1692.42 33.3206 1692.14 33.3206C1691.86 33.3206 1691.62 33.2808 1691.42 33.2025C1691.22 33.1217 1691.06 33.0135 1690.93 32.8742C1690.81 32.7362 1690.72 32.5758 1690.66 32.3943C1690.6 32.214 1690.57 32.0188 1690.57 31.81Z" fill="white"/>
<path id="Fill-37" fill-rule="evenodd" clip-rule="evenodd" d="M1697.18 30.1228C1697.08 30.0892 1696.97 30.0606 1696.86 30.042C1696.74 30.0221 1696.61 30.0109 1696.45 30.0109C1696.37 30.0109 1696.28 30.0183 1696.18 30.0308C1696.09 30.0432 1696.01 30.0581 1695.94 30.0793L1695.19 33.2161H1694.29L1695.19 29.5061C1695.39 29.4365 1695.62 29.3755 1695.87 29.3233C1696.11 29.2711 1696.37 29.2462 1696.66 29.2462C1696.72 29.2462 1696.78 29.25 1696.86 29.2574C1696.93 29.2649 1697.01 29.2723 1697.08 29.2823C1697.15 29.2935 1697.22 29.3059 1697.28 29.3196C1697.34 29.3345 1697.4 29.3532 1697.44 29.3718L1697.18 30.1228Z" fill="white"/>
<path id="Fill-39" fill-rule="evenodd" clip-rule="evenodd" d="M1700.4 32.5317C1700.53 32.5317 1700.66 32.5193 1700.8 32.4956C1700.93 32.4695 1701.05 32.4285 1701.16 32.3688C1701.26 32.3091 1701.35 32.2283 1701.41 32.1276C1701.48 32.0257 1701.51 31.8976 1701.51 31.7434C1701.51 31.629 1701.48 31.5321 1701.43 31.45C1701.38 31.3679 1701.32 31.2958 1701.23 31.2312C1701.15 31.1665 1701.05 31.1069 1700.95 31.0497C1700.84 30.9925 1700.73 30.9315 1700.61 30.8669C1700.48 30.8022 1700.35 30.7289 1700.24 30.6468C1700.12 30.566 1700.02 30.4728 1699.93 30.3683C1699.84 30.2651 1699.77 30.1433 1699.71 30.004C1699.66 29.8648 1699.64 29.7019 1699.64 29.5129C1699.64 29.2854 1699.68 29.0765 1699.77 28.885C1699.85 28.6948 1699.98 28.5295 1700.16 28.3902C1700.33 28.2522 1700.54 28.1428 1700.79 28.0632C1701.04 27.9849 1701.33 27.9451 1701.67 27.9451C1701.82 27.9451 1701.97 27.9563 1702.11 27.9824C1702.25 28.006 1702.39 28.0383 1702.51 28.0744C1702.63 28.1117 1702.74 28.154 1702.84 28.1975C1702.93 28.2422 1703.01 28.2845 1703.06 28.3231L1702.65 29.0367C1702.55 28.9534 1702.4 28.8813 1702.21 28.8229C1702.03 28.7632 1701.82 28.7321 1701.6 28.7321C1701.46 28.7321 1701.34 28.7458 1701.22 28.7744C1701.09 28.8005 1700.99 28.8428 1700.89 28.9C1700.8 28.9572 1700.73 29.0318 1700.68 29.1238C1700.63 29.2145 1700.6 29.3227 1700.6 29.447C1700.6 29.5602 1700.62 29.6559 1700.65 29.7293C1700.69 29.8039 1700.74 29.8685 1700.81 29.9257C1700.88 29.9829 1700.96 30.0351 1701.05 30.0824C1701.14 30.1296 1701.23 30.1818 1701.34 30.2415C1701.49 30.3273 1701.64 30.4106 1701.78 30.4951C1701.91 30.5797 1702.03 30.6767 1702.14 30.7848C1702.24 30.8942 1702.32 31.0186 1702.39 31.1603C1702.45 31.3021 1702.48 31.4711 1702.48 31.6701C1702.48 31.9473 1702.43 32.191 1702.32 32.3987C1702.22 32.6075 1702.07 32.7791 1701.88 32.9159C1701.69 33.0514 1701.47 33.1546 1701.21 33.2242C1700.95 33.2926 1700.67 33.3287 1700.36 33.3287C1700.16 33.3287 1699.97 33.3125 1699.8 33.2827C1699.62 33.2528 1699.47 33.2168 1699.34 33.172C1699.2 33.1272 1699.09 33.08 1698.99 33.0303C1698.89 32.9805 1698.82 32.9358 1698.76 32.8972L1699.18 32.1599C1699.23 32.1948 1699.3 32.2358 1699.38 32.2793C1699.46 32.3241 1699.55 32.3651 1699.66 32.4024C1699.76 32.4397 1699.88 32.4695 1700 32.4956C1700.13 32.5193 1700.26 32.5317 1700.4 32.5317Z" fill="white"/>
<path id="Fill-41" fill-rule="evenodd" clip-rule="evenodd" d="M1704.06 28.3014L1705 28.1535L1704.71 29.3272H1705.99L1705.81 30.0707H1704.53L1704.16 31.6099C1704.13 31.7193 1704.12 31.8101 1704.11 31.8822C1704.1 31.9543 1704.09 32.019 1704.09 32.0786C1704.09 32.1383 1704.1 32.1967 1704.11 32.2539C1704.12 32.3111 1704.15 32.3609 1704.19 32.4019C1704.22 32.4442 1704.28 32.479 1704.35 32.5063C1704.42 32.5324 1704.52 32.5474 1704.65 32.5474C1704.78 32.5474 1704.91 32.5287 1705.03 32.4951C1705.16 32.4603 1705.27 32.423 1705.36 32.3832L1705.43 33.1044C1705.32 33.1541 1705.17 33.2013 1705 33.2461C1704.82 33.2909 1704.62 33.312 1704.38 33.312C1703.96 33.312 1703.65 33.22 1703.47 33.0347C1703.28 32.8482 1703.19 32.5946 1703.19 32.2713C1703.19 32.1532 1703.2 32.0301 1703.22 31.9033C1703.23 31.7777 1703.26 31.6435 1703.29 31.498L1704.06 28.3014Z" fill="white"/>
<path id="Fill-43" fill-rule="evenodd" clip-rule="evenodd" d="M1708.26 29.9891C1708.06 29.9891 1707.89 30.0451 1707.74 30.157C1707.59 30.2689 1707.46 30.4106 1707.36 30.5847C1707.26 30.7575 1707.18 30.9477 1707.12 31.1529C1707.07 31.3592 1707.04 31.5582 1707.04 31.7509C1707.04 31.9996 1707.09 32.1948 1707.18 32.339C1707.28 32.4832 1707.45 32.5541 1707.68 32.5541C1707.88 32.5541 1708.05 32.4994 1708.2 32.3875C1708.35 32.2756 1708.48 32.1351 1708.58 31.9635C1708.69 31.7919 1708.76 31.6029 1708.82 31.3953C1708.87 31.1864 1708.9 30.9887 1708.9 30.7998C1708.9 30.5523 1708.85 30.3546 1708.76 30.2092C1708.66 30.0625 1708.5 29.9891 1708.26 29.9891ZM1707.57 33.3212C1707.11 33.3212 1706.76 33.1832 1706.51 32.9122C1706.27 32.6386 1706.15 32.2793 1706.15 31.833C1706.15 31.5457 1706.19 31.2486 1706.28 30.9415C1706.37 30.6344 1706.51 30.3534 1706.69 30.101C1706.88 29.8486 1707.11 29.6397 1707.39 29.4769C1707.66 29.3127 1707.99 29.2319 1708.37 29.2319C1708.83 29.2319 1709.19 29.3662 1709.43 29.636C1709.68 29.9071 1709.8 30.2651 1709.8 30.7102C1709.8 31.0024 1709.75 31.3033 1709.67 31.6104C1709.58 31.9175 1709.44 32.1972 1709.26 32.4496C1709.08 32.7033 1708.85 32.9122 1708.57 33.075C1708.29 33.2379 1707.95 33.3212 1707.57 33.3212Z" fill="white"/>
<path id="Fill-45" fill-rule="evenodd" clip-rule="evenodd" d="M1711.24 32.517C1711.29 32.527 1711.35 32.5332 1711.4 32.5369C1711.45 32.5394 1711.51 32.5406 1711.56 32.5406C1711.8 32.5406 1712.02 32.4934 1712.21 32.4014C1712.4 32.3106 1712.57 32.1863 1712.7 32.0296C1712.83 31.8742 1712.94 31.6902 1713.01 31.4801C1713.08 31.2687 1713.12 31.0449 1713.12 30.8075C1713.12 30.6981 1713.11 30.5949 1713.08 30.4991C1713.06 30.4021 1713.02 30.3164 1712.96 30.2418C1712.9 30.1672 1712.82 30.1087 1712.73 30.0627C1712.63 30.0192 1712.51 29.9968 1712.36 29.9968C1712.26 29.9968 1712.16 30.003 1712.07 30.0155C1711.98 30.0279 1711.9 30.0441 1711.84 30.0627L1711.24 32.517ZM1714.02 30.7254C1714.02 31.0773 1713.97 31.408 1713.85 31.7176C1713.74 32.0272 1713.58 32.2994 1713.36 32.5319C1713.14 32.7644 1712.88 32.9497 1712.57 33.0865C1712.26 33.222 1711.9 33.2904 1711.5 33.2904C1711.43 33.2904 1711.36 33.2866 1711.29 33.2792C1711.21 33.2717 1711.14 33.2643 1711.07 33.2531L1710.74 34.5921H1709.84L1711.07 29.4846C1711.28 29.4087 1711.5 29.3491 1711.76 29.3055C1712.01 29.2608 1712.26 29.2384 1712.51 29.2384C1712.77 29.2384 1713 29.2769 1713.19 29.354C1713.38 29.4311 1713.54 29.5368 1713.66 29.6698C1713.78 29.8029 1713.87 29.9608 1713.93 30.1423C1713.99 30.3226 1714.02 30.5178 1714.02 30.7254Z" fill="white"/>
<path id="Fill-47" fill-rule="evenodd" clip-rule="evenodd" d="M1719.61 32.4284L1719.42 33.2166H1716.19L1717.43 28.0631H1718.37L1717.32 32.4284H1719.61Z" fill="white"/>
<path id="Fill-49" fill-rule="evenodd" clip-rule="evenodd" d="M1721.72 28.7397C1721.58 28.7397 1721.47 28.7012 1721.37 28.6203C1721.27 28.542 1721.22 28.4227 1721.22 28.2635C1721.22 28.0807 1721.28 27.9303 1721.41 27.8109C1721.54 27.6916 1721.68 27.6319 1721.85 27.6319C1721.98 27.6319 1722.1 27.6742 1722.2 27.755C1722.3 27.8358 1722.35 27.9564 1722.35 28.1156C1722.35 28.2996 1722.29 28.45 1722.16 28.5644C1722.03 28.6813 1721.88 28.7397 1721.72 28.7397ZM1721.05 33.2169H1720.14L1721.08 29.3278H1721.99L1721.05 33.2169Z" fill="white"/>
<path id="Fill-51" fill-rule="evenodd" clip-rule="evenodd" d="M1723.09 33.2164C1722.97 32.7104 1722.86 32.1248 1722.75 31.4583C1722.65 30.7919 1722.59 30.082 1722.55 29.3273H1723.48C1723.49 29.5461 1723.49 29.7811 1723.51 30.0335C1723.52 30.2871 1723.54 30.5408 1723.56 30.7969C1723.58 31.0518 1723.6 31.298 1723.63 31.5354C1723.66 31.7741 1723.69 31.9892 1723.72 32.1832C1723.85 32.0141 1723.99 31.8114 1724.14 31.5777C1724.29 31.3415 1724.44 31.094 1724.58 30.833C1724.72 30.5731 1724.84 30.312 1724.96 30.0484C1725.07 29.7861 1725.16 29.5461 1725.24 29.3273H1726.18C1726.06 29.6692 1725.91 30.0223 1725.73 30.3841C1725.55 30.7459 1725.35 31.0978 1725.14 31.4384C1724.93 31.7816 1724.72 32.1049 1724.5 32.4132C1724.27 32.7216 1724.06 32.9876 1723.86 33.2164H1723.09Z" fill="white"/>
<path id="Fill-53" fill-rule="evenodd" clip-rule="evenodd" d="M1727.56 28.7397C1727.42 28.7397 1727.31 28.7012 1727.21 28.6203C1727.11 28.542 1727.06 28.4227 1727.06 28.2635C1727.06 28.0807 1727.12 27.9303 1727.25 27.8109C1727.37 27.6916 1727.52 27.6319 1727.68 27.6319C1727.82 27.6319 1727.94 27.6742 1728.04 27.755C1728.14 27.8358 1728.19 27.9564 1728.19 28.1156C1728.19 28.2996 1728.13 28.45 1728 28.5644C1727.87 28.6813 1727.72 28.7397 1727.56 28.7397ZM1726.89 33.2169H1725.98L1726.92 29.3278H1727.83L1726.89 33.2169Z" fill="white"/>
<path id="Fill-55" fill-rule="evenodd" clip-rule="evenodd" d="M1728.91 29.4913C1729.11 29.4316 1729.34 29.3757 1729.59 29.3234C1729.85 29.2712 1730.13 29.2464 1730.43 29.2464C1730.89 29.2464 1731.22 29.3583 1731.44 29.5796C1731.65 29.8034 1731.76 30.103 1731.76 30.4797C1731.76 30.5842 1731.75 30.6948 1731.74 30.8117C1731.72 30.9273 1731.7 31.0479 1731.67 31.1723L1731.18 33.2163H1730.28L1730.74 31.268C1730.76 31.1598 1730.79 31.0479 1730.81 30.9335C1730.84 30.8191 1730.85 30.7097 1730.86 30.6053C1730.86 30.4337 1730.82 30.2895 1730.73 30.1751C1730.65 30.0607 1730.48 30.0035 1730.22 30.0035C1730.01 30.0035 1729.82 30.0272 1729.67 30.0707L1728.92 33.2163H1728.01L1728.91 29.4913Z" fill="white"/>
<path id="Fill-57" fill-rule="evenodd" clip-rule="evenodd" d="M1733.97 32.2791C1734.1 32.2791 1734.24 32.2542 1734.38 32.2045C1734.52 32.1547 1734.64 32.0938 1734.74 32.0192L1735.22 30.0336C1735.1 30.0088 1734.99 29.9963 1734.88 29.9963C1734.65 29.9963 1734.44 30.0386 1734.26 30.1231C1734.07 30.2077 1733.91 30.3221 1733.78 30.4651C1733.64 30.608 1733.54 30.7759 1733.46 30.9661C1733.39 31.1588 1733.35 31.3627 1733.35 31.5803C1733.35 31.7979 1733.4 31.9695 1733.49 32.0938C1733.59 32.2169 1733.74 32.2791 1733.97 32.2791ZM1733.31 33.8568C1733.68 33.8568 1733.96 33.771 1734.15 33.6019C1734.33 33.4341 1734.46 33.2041 1734.52 32.9119L1734.54 32.8075C1734.44 32.8572 1734.33 32.9032 1734.19 32.9442C1734.05 32.9865 1733.9 33.0076 1733.75 33.0076C1733.31 33.0076 1732.98 32.8895 1732.77 32.6545C1732.56 32.4196 1732.45 32.105 1732.45 31.7146C1732.45 31.3578 1732.52 31.027 1732.64 30.7249C1732.77 30.4228 1732.94 30.1617 1733.17 29.9404C1733.39 29.7203 1733.67 29.5487 1733.99 29.4244C1734.3 29.3001 1734.66 29.2391 1735.04 29.2391C1735.23 29.2391 1735.44 29.259 1735.65 29.3013C1735.87 29.3436 1736.07 29.412 1736.24 29.5065L1735.45 32.8075C1735.38 33.0996 1735.29 33.3583 1735.18 33.5845C1735.08 33.8096 1734.94 33.9986 1734.76 34.149C1734.59 34.3007 1734.37 34.4163 1734.12 34.4946C1733.86 34.5742 1733.55 34.614 1733.19 34.614C1732.92 34.614 1732.68 34.5854 1732.47 34.5295C1732.26 34.4723 1732.08 34.4014 1731.92 34.3169L1732.24 33.5883C1732.37 33.6666 1732.53 33.7313 1732.7 33.781C1732.88 33.8307 1733.08 33.8568 1733.31 33.8568Z" fill="white"/>
</g>
</g>
</g>
</g>
</g>
</g>
</g>
<defs>
<clipPath id="clip0_0_1">
<rect width="91.5" height="30.6763" fill="white" transform="translate(3 12.6632)"/>
</clipPath>
<clipPath id="clip1_0_1">
<rect width="91.5" height="28.6865" fill="white" transform="translate(287.5 10.709)"/>
</clipPath>
<clipPath id="clip2_0_1">
<rect width="120.529" height="25.701" fill="white" transform="translate(427.952 12.1495)"/>
</clipPath>
<clipPath id="clip3_0_1">
<rect width="125.57" height="26.8747" fill="white" transform="translate(598.549 11.5626)"/>
</clipPath>
<clipPath id="clip4_0_1">
<rect width="122.046" height="33.0778" fill="white" transform="translate(774.238 6.4601)"/>
</clipPath>
<clipPath id="clip5_0_1">
<rect width="58.2232" height="22.8172" fill="white" transform="translate(944.194 13.5914)"/>
</clipPath>
<clipPath id="clip6_0_1">
<rect width="115" height="36" fill="white" transform="translate(1046.33 7)"/>
</clipPath>
<clipPath id="clip7_0_1">
<rect width="112.667" height="29.7031" fill="white" transform="translate(1206.68 3.97062)"/>
</clipPath>
<clipPath id="clip8_0_1">
<rect width="91.5" height="20.2557" fill="white" transform="translate(1647.38 14.8721)"/>
</clipPath>
</defs>
</svg>
